<svg xmlns="http://www.w3.org/2000/svg" xmlns:xlink="http://www.w3.org/1999/xlink" xmlns:lucid="lucid" width="8345.89" height="962"><g transform="translate(1920 -159)" lucid:page-tab-id="0_0"><path d="M-1878.88 405.8a7.8 7.8 0 0 1 7.55-5.8H-1566a4.6 4.6 0 0 1 4.45 5.8l-39.57 148.4a7.8 7.8 0 0 1-7.55 5.8H-1914a4.6 4.6 0 0 1-4.45-5.8z" stroke="#3a414a" stroke-width="2" fill="#fff7a1"/><use xlink:href="#a" transform="matrix(1,0,0,1,-1915,405) translate(113.80165798611111 82.46527777777777)"/><path d="M-1440 446a6 6 0 0 1 6-6h468a6 6 0 0 1 6 6v68a6 6 0 0 1-6 6h-468a6 6 0 0 1-6-6z" stroke="#3a414a" stroke-width="2" fill="#b8f5ed"/><use xlink:href="#b" transform="matrix(1,0,0,1,-1428,452) translate(99.37586805555554 35.52777777777778)"/><path d="M-1579.8 480h122.42" stroke="#3a414a" fill="none"/><path d="M-1579.8 480.48h-.63l.26-.96h.38z" stroke="#3a414a" stroke-width=".05" fill="#3a414a"/><path d="M-1442.62 480l-14.26 4.63v-9.26z" stroke="#3a414a" fill="#3a414a"/><path d="M-758.88 405.8a7.8 7.8 0 0 1 7.55-5.8H-446a4.6 4.6 0 0 1 4.45 5.8l-39.57 148.4a7.8 7.8 0 0 1-7.55 5.8H-794a4.6 4.6 0 0 1-4.45-5.8z" stroke="#3a414a" stroke-width="2" fill="#fff7a1"/><use xlink:href="#c" transform="matrix(1,0,0,1,-795,405) translate(126.56359375000001 68.40277777777777)"/><use xlink:href="#d" transform="matrix(1,0,0,1,-795,405) translate(177.67036458333334 68.40277777777777)"/><use xlink:href="#e" transform="matrix(1,0,0,1,-795,405) translate(128.60764756944445 95.29079861111111)"/><use xlink:href="#f" transform="matrix(1,0,0,1,-795,405) translate(157.6766579861111 95.29079861111111)"/><path d="M-958.5 480h162.4" stroke="#3a414a" fill="none"/><path d="M-958.5 480.48h-.5v-.96h.5z" stroke="#3a414a" stroke-width=".05" fill="#3a414a"/><path d="M-781.32 480l-14.26 4.63v-9.26z" stroke="#3a414a" fill="#3a414a"/><path d="M-758.88 645.8a7.8 7.8 0 0 1 7.55-5.8H-446a4.6 4.6 0 0 1 4.45 5.8l-39.57 148.4a7.8 7.8 0 0 1-7.55 5.8H-794a4.6 4.6 0 0 1-4.45-5.8z" stroke="#3a414a" stroke-width="2" fill="#fff7a1"/><use xlink:href="#g" transform="matrix(1,0,0,1,-795,645) translate(80.42796006944445 54.34027777777778)"/><use xlink:href="#h" transform="matrix(1,0,0,1,-795,645) translate(134.57292534722222 54.34027777777778)"/><use xlink:href="#i" transform="matrix(1,0,0,1,-795,645) translate(179.88542534722222 54.34027777777778)"/><use xlink:href="#j" transform="matrix(1,0,0,1,-795,645) translate(80.3606857638889 81.22829861111111)"/><use xlink:href="#k" transform="matrix(1,0,0,1,-795,645) translate(100.9661545138889 81.22829861111111)"/><use xlink:href="#l" transform="matrix(1,0,0,1,-795,645) translate(164.94184895833334 81.22829861111111)"/><use xlink:href="#m" transform="matrix(1,0,0,1,-795,645) translate(250.90105034722222 81.22829861111111)"/><use xlink:href="#n" transform="matrix(1,0,0,1,-795,645) translate(99.35352430555555 108.11631944444446)"/><path d="M-320 566a6 6 0 0 1 6-6h548a6 6 0 0 1 6 6v68a6 6 0 0 1-6 6h-548a6 6 0 0 1-6-6z" stroke="#3a414a" stroke-width="2" fill="#b8f5ed"/><use xlink:href="#o" transform="matrix(1,0,0,1,-308,572) translate(29.729600694444457 35.52777777777778)"/><use xlink:href="#p" transform="matrix(1,0,0,1,-308,572) translate(162.39019097222223 35.52777777777778)"/><use xlink:href="#q" transform="matrix(1,0,0,1,-308,572) translate(222.41623263888889 35.52777777777778)"/><use xlink:href="#r" transform="matrix(1,0,0,1,-308,572) translate(243.36892361111111 35.52777777777778)"/><use xlink:href="#h" transform="matrix(1,0,0,1,-308,572) translate(297.5138888888889 35.52777777777778)"/><use xlink:href="#s" transform="matrix(1,0,0,1,-308,572) translate(342.8263888888889 35.52777777777778)"/><path d="M-459.8 480h63.15a6 6 0 0 1 6 6v93.94a6 6 0 0 0 6 6h47.27" stroke="#3a414a" fill="none"/><path d="M-459.8 480.48h-.63l.26-.96h.38z" stroke="#3a414a" stroke-width=".05" fill="#3a414a"/><path d="M-322.62 585.94l-14.26 4.63v-9.27z" stroke="#3a414a" fill="#3a414a"/><path d="M-459.8 720h63.15a6 6 0 0 0 6-6v-94.4a6 6 0 0 1 6-6h47.27" stroke="#3a414a" fill="none"/><path d="M-459.8 720.48h-.63l.26-.96h.38z" stroke="#3a414a" stroke-width=".05" fill="#3a414a"/><path d="M-322.62 613.6l-14.26 4.65v-9.27z" stroke="#3a414a" fill="#3a414a"/><path d="M1005.24 503.66a7.8 7.8 0 0 1 9.52 0l120.48 92.68a4.62 4.62 0 0 1 0 7.32l-120.48 92.68a7.8 7.8 0 0 1-9.52 0l-120.48-92.68a4.62 4.62 0 0 1 0-7.32z" stroke="#3a414a" stroke-width="2" fill="#fe7070"/><use xlink:href="#t" transform="matrix(1,0,0,1,885,505) translate(38.69857638888889 86.84027777777777)"/><use xlink:href="#u" transform="matrix(1,0,0,1,885,505) translate(92.84354166666667 86.84027777777777)"/><use xlink:href="#v" transform="matrix(1,0,0,1,885,505) translate(172.2489236111111 86.84027777777777)"/><use xlink:href="#w" transform="matrix(1,0,0,1,885,505) translate(48.23091145833334 113.72829861111111)"/><use xlink:href="#x" transform="matrix(1,0,0,1,885,505) translate(69.18360243055555 113.72829861111111)"/><path d="M441.12 525.8a7.8 7.8 0 0 1 7.55-5.8H754a4.6 4.6 0 0 1 4.45 5.8l-39.57 148.4a7.8 7.8 0 0 1-7.55 5.8H406a4.6 4.6 0 0 1-4.45-5.8z" stroke="#3a414a" stroke-width="2" fill="#fff7a1"/><use xlink:href="#g" transform="matrix(1,0,0,1,405,525) translate(92.6985763888889 68.40277777777777)"/><use xlink:href="#y" transform="matrix(1,0,0,1,405,525) translate(146.84354166666668 68.40277777777777)"/><use xlink:href="#z" transform="matrix(1,0,0,1,405,525) translate(226.2489236111111 68.40277777777777)"/><use xlink:href="#A" transform="matrix(1,0,0,1,405,525) translate(126.37782986111112 95.29079861111111)"/><use xlink:href="#f" transform="matrix(1,0,0,1,405,525) translate(159.90647569444445 95.29079861111111)"/><path d="M241.5 600h162.42" stroke="#3a414a" fill="none"/><path d="M241.5 600.48h-.5v-.96h.5z" stroke="#3a414a" stroke-width=".05" fill="#3a414a"/><path d="M418.68 600l-14.26 4.63v-9.26z" stroke="#3a414a" fill="#3a414a"/><path d="M740.2 600h125.37" stroke="#3a414a" fill="none"/><path d="M740.2 600.48h-.63l.26-.96h.38z" stroke="#3a414a" stroke-width=".05" fill="#3a414a"/><path d="M880.33 600l-14.26 4.63v-9.26z" stroke="#3a414a" fill="#3a414a"/><path d="M-320 786a6 6 0 0 1 6-6h548a6 6 0 0 1 6 6v68a6 6 0 0 1-6 6h-548a6 6 0 0 1-6-6z" stroke="#3a414a" stroke-width="2" fill="#b8f5ed"/><use xlink:href="#g" transform="matrix(1,0,0,1,-308,792) translate(31.12391493055557 35.52777777777778)"/><use xlink:href="#h" transform="matrix(1,0,0,1,-308,792) translate(85.26888020833334 35.52777777777778)"/><use xlink:href="#B" transform="matrix(1,0,0,1,-308,792) translate(130.58138020833334 35.52777777777778)"/><use xlink:href="#C" transform="matrix(1,0,0,1,-308,792) translate(242.52799479166666 35.52777777777778)"/><use xlink:href="#r" transform="matrix(1,0,0,1,-308,792) translate(263.4806857638889 35.52777777777778)"/><use xlink:href="#h" transform="matrix(1,0,0,1,-308,792) translate(317.62565104166663 35.52777777777778)"/><use xlink:href="#B" transform="matrix(1,0,0,1,-308,792) translate(362.93815104166663 35.52777777777778)"/><use xlink:href="#q" transform="matrix(1,0,0,1,-308,792) translate(474.884765625 35.52777777777778)"/><use xlink:href="#D" transform="matrix(1,0,0,1,-308,792) translate(495.8374565972222 35.52777777777778)"/><path d="M673.8 820.98H259.5V819h414.3zm337.18-6.94l-.1 1.05-.24 1.06-.42 1-.58.94-.7.83-.84.72-.93.57-1 .42-1.08.25-1.06.08h-305.8V819h305.72l.83-.06.75-.18.73-.3.67-.42.6-.5.5-.6.43-.68.3-.73.18-.76.06-.84v-114h1.96z" stroke="#e81313" stroke-width=".05" fill="#e81313"/><path d="M1010 698.96l.98-.06v1.1H1009v-1.1z" fill="#e81313"/><path stroke="#e81313" stroke-width=".05" fill="#e81313"/><path d="M258.5 824.63L244.24 820l14.26-4.63z" fill="#e81313"/><path d="M259.48 825.98l-18.4-5.98 18.4-5.98zm-12.1-5.98l10.15 3.3v-6.6z" stroke="#e81313" stroke-width=".05" fill="#e81313"/><use xlink:href="#E" transform="matrix(1,0,0,1,673.7927119253534,809.2447916666666) translate(0 17.22222222222222)"/><path d="M-40 778.5V657.38" stroke="#3a414a" fill="none"/><path d="M-39.52 779h-.95v-.5h.95z" stroke="#3a414a" stroke-width=".05" fill="#3a414a"/><path d="M-40 642.62l4.63 14.26h-9.27z" stroke="#3a414a" fill="#3a414a"/><path d="M548.6 193a16.57 16.57 0 0 0-10.6-3.84H208c-26.5 0-48 35.82-48 80 0 44.19 21.5 80 48 80h330a16.57 16.57 0 0 0 10.6-3.84L635.4 273a5 5 0 0 0 0-7.68z" stroke="#3a414a" stroke-width="2" fill="#c3f7c8"/><use xlink:href="#F" transform="matrix(1,0,0,1,165,194.16254309452307) translate(12.468967013888914 82.46527777777777)"/><use xlink:href="#G" transform="matrix(1,0,0,1,165,194.16254309452307) translate(257.9767795138889 82.46527777777777)"/><use xlink:href="#q" transform="matrix(1,0,0,1,165,194.16254309452307) translate(311.5900607638889 82.46527777777777)"/><use xlink:href="#H" transform="matrix(1,0,0,1,165,194.16254309452307) translate(332.54275173611114 82.46527777777777)"/><use xlink:href="#I" transform="matrix(1,0,0,1,165,194.16254309452307) translate(383.64952256944446 82.46527777777777)"/><path d="M-278.88 165.8a7.8 7.8 0 0 1 7.55-5.8H34a4.6 4.6 0 0 1 4.45 5.8L-1.12 314.2a7.8 7.8 0 0 1-7.55 5.8H-314a4.6 4.6 0 0 1-4.45-5.8z" stroke="#3a414a" stroke-width="2" fill="#fff7a1"/><use xlink:href="#J" transform="matrix(1,0,0,1,-315,165) translate(112.65300347222224 68.40277777777777)"/><use xlink:href="#K" transform="matrix(1,0,0,1,-315,165) translate(197.99371527777777 68.40277777777777)"/><use xlink:href="#L" transform="matrix(1,0,0,1,-315,165) translate(147.63434027777777 95.29079861111111)"/><path d="M20.2 240H91l.02-.02h54.92" stroke="#3a414a" fill="none"/><path d="M20.2 240.47h-.63l.26-.94h.38z" stroke="#3a414a" stroke-width=".05" fill="#3a414a"/><path d="M160.7 239.98l-14.26 4.64v-9.27z" stroke="#3a414a" fill="#3a414a"/><path d="M-451.13 447.5H74a6 6 0 0 0 6-6V304.67a6 6 0 0 1 6-6h60" stroke="#3a414a" fill="none"/><path d="M-451.12 448h-.64l.25-.96h.38z" stroke="#3a414a" stroke-width=".05" fill="#3a414a"/><path d="M160.77 298.66l-14.27 4.63v-9.28z" stroke="#3a414a" fill="#3a414a"/><path d="M960 189.16c44.18 0 80 35.82 80 80 0 44.19-35.82 80-80 80H800c-44.18 0-80-35.81-80-80 0-44.18 35.82-80 80-80z" stroke="#3a414a" stroke-width="2" fill="#ffd6f5"/><use xlink:href="#M" transform="matrix(1,0,0,1,725,194.16254309452307) translate(128.11197916666669 82.46527777777777)"/><path d="M638.7 269.16h63.92" stroke="#3a414a" fill="none"/><path d="M638.7 269.64h-.55l.04-.48-.05-.47h.56z" stroke="#3a414a" stroke-width=".05" fill="#3a414a"/><path d="M717.38 269.16l-14.26 4.64v-9.27z" stroke="#3a414a" fill="#3a414a"/><path d="M1280 566a6 6 0 0 1 6-6h468a6 6 0 0 1 6 6v68a6 6 0 0 1-6 6h-468a6 6 0 0 1-6-6z" stroke="#3a414a" stroke-width="2" fill="#b8f5ed"/><use xlink:href="#N" transform="matrix(1,0,0,1,1292,572) translate(0.6942274305555713 35.52777777777778)"/><use xlink:href="#r" transform="matrix(1,0,0,1,1292,572) translate(75.0431857638889 35.52777777777778)"/><use xlink:href="#O" transform="matrix(1,0,0,1,1292,572) translate(129.18815104166669 35.52777777777778)"/><use xlink:href="#h" transform="matrix(1,0,0,1,1292,572) translate(199.83702256944446 35.52777777777778)"/><use xlink:href="#P" transform="matrix(1,0,0,1,1292,572) translate(245.14952256944446 35.52777777777778)"/><use xlink:href="#Q" transform="matrix(1,0,0,1,1292,572) translate(269.91080729166663 35.52777777777778)"/><use xlink:href="#R" transform="matrix(1,0,0,1,1292,572) translate(406.2280815972222 35.52777777777778)"/><path d="M1961.12 525.8a7.8 7.8 0 0 1 7.55-5.8H2274a4.6 4.6 0 0 1 4.45 5.8l-39.57 148.4a7.8 7.8 0 0 1-7.55 5.8H1926a4.6 4.6 0 0 1-4.45-5.8z" stroke="#3a414a" stroke-width="2" fill="#fff7a1"/><use xlink:href="#g" transform="matrix(1,0,0,1,1925,525) translate(97.07683159722224 68.40277777777777)"/><use xlink:href="#O" transform="matrix(1,0,0,1,1925,525) translate(151.221796875 68.40277777777777)"/><use xlink:href="#z" transform="matrix(1,0,0,1,1925,525) translate(221.87066840277777 68.40277777777777)"/><use xlink:href="#S" transform="matrix(1,0,0,1,1925,525) translate(22.487855902777778 95.29079861111111)"/><use xlink:href="#k" transform="matrix(1,0,0,1,1925,525) translate(56.190112847222224 95.29079861111111)"/><use xlink:href="#T" transform="matrix(1,0,0,1,1925,525) translate(120.16580729166665 95.29079861111111)"/><use xlink:href="#U" transform="matrix(1,0,0,1,1925,525) translate(264.338984375 95.29079861111111)"/><path d="M1761.5 600h162.4" stroke="#3a414a" fill="none"/><path d="M1761.5 600.48h-.5v-.96h.5z" stroke="#3a414a" stroke-width=".05" fill="#3a414a"/><path d="M1938.68 600l-14.27 4.63v-9.26z" stroke="#3a414a" fill="#3a414a"/><path d="M1192.73 600.98h-53.68V599h53.68zm67.77 0h-36.18V599h36.18z" stroke="#008a0e" stroke-width=".05" fill="#008a0e"/><path d="M1139.08 600.98h-1.12l.1-.98-.1-.98h1.12z" fill="#008a0e"/><path stroke="#008a0e" stroke-width=".05" fill="#008a0e"/><path d="M1275.76 600l-14.26 4.63v-9.26z" fill="#008a0e"/><path d="M1278.92 600l-18.4 5.98v-11.96zm-16.45 3.3l10.14-3.3-10.13-3.3z" stroke="#008a0e" stroke-width=".05" fill="#008a0e"/><use xlink:href="#V" transform="matrix(1,0,0,1,1192.726289867475,589.2447916666666) translate(0 17.22222222222222)"/><path d="M1961.12 725.8a7.8 7.8 0 0 1 7.55-5.8H2274a4.6 4.6 0 0 1 4.45 5.8l-39.57 148.4a7.8 7.8 0 0 1-7.55 5.8H1926a4.6 4.6 0 0 1-4.45-5.8z" stroke="#3a414a" stroke-width="2" fill="#fff7a1"/><use xlink:href="#W" transform="matrix(1,0,0,1,1925,725) translate(99.80035590277778 68.40277777777777)"/><use xlink:href="#X" transform="matrix(1,0,0,1,1925,725) translate(173.93230034722222 68.40277777777777)"/><use xlink:href="#j" transform="matrix(1,0,0,1,1925,725) translate(60.562942708333324 95.29079861111111)"/><use xlink:href="#k" transform="matrix(1,0,0,1,1925,725) translate(81.16841145833332 95.29079861111111)"/><use xlink:href="#n" transform="matrix(1,0,0,1,1925,725) translate(145.14410590277777 95.29079861111111)"/><path d="M1961.12 925.8a7.8 7.8 0 0 1 7.55-5.8H2274a4.6 4.6 0 0 1 4.45 5.8l-39.57 148.4a7.8 7.8 0 0 1-7.55 5.8H1926a4.6 4.6 0 0 1-4.45-5.8z" stroke="#3a414a" stroke-width="2" fill="#fff7a1"/><use xlink:href="#Y" transform="matrix(1,0,0,1,1925,925) translate(91.19184895833334 54.34027777777778)"/><use xlink:href="#h" transform="matrix(1,0,0,1,1925,925) translate(123.80903645833334 54.34027777777778)"/><use xlink:href="#i" transform="matrix(1,0,0,1,1925,925) translate(169.12153645833334 54.34027777777778)"/><use xlink:href="#j" transform="matrix(1,0,0,1,1925,925) translate(80.3606857638889 81.22829861111111)"/><use xlink:href="#k" transform="matrix(1,0,0,1,1925,925) translate(100.9661545138889 81.22829861111111)"/><use xlink:href="#l" transform="matrix(1,0,0,1,1925,925) translate(164.94184895833334 81.22829861111111)"/><use xlink:href="#m" transform="matrix(1,0,0,1,1925,925) translate(250.90105034722222 81.22829861111111)"/><use xlink:href="#n" transform="matrix(1,0,0,1,1925,925) translate(99.35352430555555 108.11631944444446)"/><path d="M2400 766a6 6 0 0 1 6-6h788a6 6 0 0 1 6 6v68a6 6 0 0 1-6 6h-788a6 6 0 0 1-6-6z" stroke="#3a414a" stroke-width="2" fill="#b8f5ed"/><use xlink:href="#Z" transform="matrix(1,0,0,1,2412,772) translate(38.20073784722223 35.52777777777778)"/><use xlink:href="#aa" transform="matrix(1,0,0,1,2412,772) translate(173.89952256944443 35.52777777777778)"/><use xlink:href="#ab" transform="matrix(1,0,0,1,2412,772) translate(244.5483940972222 35.52777777777778)"/><use xlink:href="#ac" transform="matrix(1,0,0,1,2412,772) translate(289.8608940972222 35.52777777777778)"/><use xlink:href="#ad" transform="matrix(1,0,0,1,2412,772) translate(310.8135850694444 35.52777777777778)"/><use xlink:href="#ae" transform="matrix(1,0,0,1,2412,772) translate(384.94552951388886 35.52777777777778)"/><use xlink:href="#ac" transform="matrix(1,0,0,1,2412,772) translate(475.47287326388886 35.52777777777778)"/><use xlink:href="#af" transform="matrix(1,0,0,1,2412,772) translate(496.4255642361111 35.52777777777778)"/><use xlink:href="#ab" transform="matrix(1,0,0,1,2412,772) translate(529.0427517361111 35.52777777777778)"/><use xlink:href="#ag" transform="matrix(1,0,0,1,2412,772) translate(574.3552517361111 35.52777777777778)"/><path d="M2260.2 600h63.15a6 6 0 0 1 6 6v170.34a6 6 0 0 0 6 6h47.27" stroke="#3a414a" fill="none"/><path d="M2260.2 600.48h-.63l.26-.96h.38z" stroke="#3a414a" stroke-width=".05" fill="#3a414a"/><path d="M2397.38 782.34l-14.26 4.63v-9.27z" stroke="#3a414a" fill="#3a414a"/><path d="M2260.2 800h122.42" stroke="#3a414a" fill="none"/><path d="M2260.2 800.48h-.63l.26-.96h.38z" stroke="#3a414a" stroke-width=".05" fill="#3a414a"/><path d="M2397.38 800l-14.26 4.63v-9.26z" stroke="#3a414a" fill="#3a414a"/><path d="M2260.2 1000h63.15a6 6 0 0 0 6-6V824.87a6 6 0 0 1 6-6h47.27" stroke="#3a414a" fill="none"/><path d="M2260.2 1000.48h-.63l.26-.96h.38z" stroke="#3a414a" stroke-width=".05" fill="#3a414a"/><path d="M2397.38 818.87l-14.26 4.63v-9.27z" stroke="#3a414a" fill="#3a414a"/><path d="M4034.63 702.68a12 12 0 0 1 10.74 0l189.26 94.64a3 3 0 0 1 0 5.36l-189.26 94.64a12 12 0 0 1-10.74 0l-189.26-94.64a3 3 0 0 1 0-5.36z" stroke="#3a414a" stroke-width="2" fill="#fe7070"/><g><use xlink:href="#ah" transform="matrix(1,0,0,1,3845,705) translate(63.608515625 86.84027777777777)"/><use xlink:href="#ai" transform="matrix(1,0,0,1,3845,705) translate(69.858515625 86.84027777777777)"/><use xlink:href="#aj" transform="matrix(1,0,0,1,3845,705) translate(207.8250954861111 86.84027777777777)"/><use xlink:href="#ak" transform="matrix(1,0,0,1,3845,705) translate(287.338984375 86.84027777777777)"/><use xlink:href="#al" transform="matrix(1,0,0,1,3845,705) translate(118.23091145833334 113.72829861111111)"/><use xlink:href="#x" transform="matrix(1,0,0,1,3845,705) translate(139.18360243055554 113.72829861111111)"/></g><path d="M3401.12 725.8a7.8 7.8 0 0 1 7.55-5.8H3714a4.6 4.6 0 0 1 4.45 5.8l-39.57 148.4a7.8 7.8 0 0 1-7.55 5.8H3366a4.6 4.6 0 0 1-4.45-5.8z" stroke="#3a414a" stroke-width="2" fill="#fff7a1"/><g><use xlink:href="#am" transform="matrix(1,0,0,1,3365,725) translate(50.78776909722224 68.40277777777777)"/><use xlink:href="#y" transform="matrix(1,0,0,1,3365,725) translate(188.75434895833334 68.40277777777777)"/><use xlink:href="#z" transform="matrix(1,0,0,1,3365,725) translate(268.15973090277777 68.40277777777777)"/><use xlink:href="#A" transform="matrix(1,0,0,1,3365,725) translate(126.37782986111112 95.29079861111111)"/><use xlink:href="#f" transform="matrix(1,0,0,1,3365,725) translate(159.90647569444445 95.29079861111111)"/></g><path d="M3201.5 800h162.4" stroke="#3a414a" fill="none"/><path d="M3201.5 800.48h-.5v-.96h.5z" stroke="#3a414a" stroke-width=".05" fill="#3a414a"/><path d="M3378.68 800l-14.26 4.63v-9.26z" stroke="#3a414a" fill="#3a414a"/><path d="M3700.2 800h126.12" stroke="#3a414a" fill="none"/><path d="M3700.2 800.48h-.63l.26-.96h.38z" stroke="#3a414a" stroke-width=".05" fill="#3a414a"/><path d="M3841.08 800l-14.26 4.63v-9.26z" stroke="#3a414a" fill="#3a414a"/><path d="M4405.9 766a6 6 0 0 1 6-6h428a6 6 0 0 1 6 6v68a6 6 0 0 1-6 6h-428a6 6 0 0 1-6-6z" stroke="#3a414a" stroke-width="2" fill="#b8f5ed"/><g><use xlink:href="#N" transform="matrix(1,0,0,1,4417.885569706048,772) translate(7.766710069444429 35.52777777777778)"/><use xlink:href="#O" transform="matrix(1,0,0,1,4417.885569706048,772) translate(82.11566840277776 35.52777777777778)"/><use xlink:href="#h" transform="matrix(1,0,0,1,4417.885569706048,772) translate(152.76453993055551 35.52777777777778)"/><use xlink:href="#P" transform="matrix(1,0,0,1,4417.885569706048,772) translate(198.07703993055551 35.52777777777778)"/><use xlink:href="#Q" transform="matrix(1,0,0,1,4417.885569706048,772) translate(222.83832465277774 35.52777777777778)"/><use xlink:href="#R" transform="matrix(1,0,0,1,4417.885569706048,772) translate(359.15559895833337 35.52777777777778)"/></g><path d="M4305.3 800.98h-67V799h67zm81.08 0h-49.5V799h49.5z" stroke="#008a0e" stroke-width=".05" fill="#008a0e"/><path d="M4238.32 800.98h-1.15l.13-.98-.1-.88 1.12-.1z" fill="#008a0e"/><path stroke="#008a0e" stroke-width=".05" fill="#008a0e"/><path d="M4401.65 800l-14.27 4.63v-9.26z" fill="#008a0e"/><path d="M4404.8 800l-18.4 5.98v-11.96zm-16.44 3.3l10.13-3.3-10.14-3.3z" stroke="#008a0e" stroke-width=".05" fill="#008a0e"/><g><use xlink:href="#V" transform="matrix(1,0,0,1,4305.293147540547,789.2447916666666) translate(0 17.22222222222222)"/></g><path d="M2270.1 562.9h1581.14a6 6 0 0 1 6 6v47.95a6 6 0 0 0 6 6H5428.5" stroke="#3a414a" fill="none"/><path d="M2270.1 563.37h-.63l.25-.95h.4z" stroke="#3a414a" stroke-width=".05" fill="#3a414a"/><path d="M5443.27 622.85L5429 627.5v-9.28z" stroke="#3a414a" fill="#3a414a"/><path d="M5027 725.8a7.8 7.8 0 0 1 7.55-5.8h305.34a4.6 4.6 0 0 1 4.44 5.8l-39.57 148.4a7.8 7.8 0 0 1-7.55 5.8H4991.9a4.6 4.6 0 0 1-4.47-5.8z" stroke="#3a414a" stroke-width="2" fill="#fff7a1"/><g><use xlink:href="#am" transform="matrix(1,0,0,1,4990.885569706046,725) translate(55.16602430555555 68.40277777777777)"/><use xlink:href="#O" transform="matrix(1,0,0,1,4990.885569706046,725) translate(193.13260416666665 68.40277777777777)"/><use xlink:href="#z" transform="matrix(1,0,0,1,4990.885569706046,725) translate(263.78147569444445 68.40277777777777)"/><use xlink:href="#S" transform="matrix(1,0,0,1,4990.885569706046,725) translate(22.487855902777778 95.29079861111111)"/><use xlink:href="#k" transform="matrix(1,0,0,1,4990.885569706046,725) translate(56.190112847222224 95.29079861111111)"/><use xlink:href="#T" transform="matrix(1,0,0,1,4990.885569706046,725) translate(120.16580729166665 95.29079861111111)"/><use xlink:href="#U" transform="matrix(1,0,0,1,4990.885569706046,725) translate(264.338984375 95.29079861111111)"/></g><path d="M4847.4 800h142.4" stroke="#3a414a" fill="none"/><path d="M4847.4 800.48h-.5v-.96h.5z" stroke="#3a414a" stroke-width=".05" fill="#3a414a"/><path d="M5004.57 800l-14.27 4.63v-9.26z" stroke="#3a414a" fill="#3a414a"/><path d="M5445.9 606a6 6 0 0 1 6-6h308a6 6 0 0 1 6 6v68a6 6 0 0 1-6 6h-308a6 6 0 0 1-6-6z" stroke="#3a414a" stroke-width="2" fill="#b8f5ed"/><g><use xlink:href="#an" transform="matrix(1,0,0,1,5457.885569706046,612) translate(2.7417534722222285 35.52777777777778)"/><use xlink:href="#ao" transform="matrix(1,0,0,1,5457.885569706046,612) translate(77.44878472222223 35.52777777777778)"/><use xlink:href="#ap" transform="matrix(1,0,0,1,5457.885569706046,612) translate(146.79557291666669 35.52777777777778)"/><use xlink:href="#aq" transform="matrix(1,0,0,1,5457.885569706046,612) translate(206.2248263888889 35.52777777777778)"/></g><path d="M5326.1 800h53.14a6 6 0 0 0 6-6V661.1a6 6 0 0 1 6-6h37.26" stroke="#3a414a" fill="none"/><path d="M5326.1 800.48h-.64l.25-.96h.4z" stroke="#3a414a" stroke-width=".05" fill="#3a414a"/><path d="M5443.27 655.1L5429 659.7v-9.27z" stroke="#3a414a" fill="#3a414a"/><path d="M6107 565.8a7.8 7.8 0 0 1 7.55-5.8h305.34a4.6 4.6 0 0 1 4.44 5.8l-39.57 148.4a7.8 7.8 0 0 1-7.55 5.8H6071.9a4.6 4.6 0 0 1-4.47-5.8z" stroke="#3a414a" stroke-width="2" fill="#fff7a1"/><g><use xlink:href="#ar" transform="matrix(1,0,0,1,6070.885569706044,565) translate(84.69618923611112 68.40277777777777)"/><use xlink:href="#aa" transform="matrix(1,0,0,1,6070.885569706044,565) translate(163.60243923611114 68.40277777777777)"/><use xlink:href="#as" transform="matrix(1,0,0,1,6070.885569706044,565) translate(234.25131076388888 68.40277777777777)"/><use xlink:href="#at" transform="matrix(1,0,0,1,6070.885569706044,565) translate(22.487855902777778 95.29079861111111)"/><use xlink:href="#au" transform="matrix(1,0,0,1,6070.885569706044,565) translate(56.190112847222224 95.29079861111111)"/><use xlink:href="#av" transform="matrix(1,0,0,1,6070.885569706044,565) translate(120.16580729166665 95.29079861111111)"/><use xlink:href="#aw" transform="matrix(1,0,0,1,6070.885569706044,565) translate(264.338984375 95.29079861111111)"/></g><path d="M5767.4 640h302.4" stroke="#3a414a" fill="none"/><path d="M5767.4 640.48h-.5v-.96h.5z" stroke="#3a414a" stroke-width=".05" fill="#3a414a"/><path d="M6084.57 640l-14.27 4.63v-9.26z" stroke="#3a414a" fill="#3a414a"/><path d="M2520 926a6 6 0 0 1 6-6h548a6 6 0 0 1 6 6v68a6 6 0 0 1-6 6h-548a6 6 0 0 1-6-6z" stroke="#3a414a" stroke-width="2" fill="#b8f5ed"/><g><use xlink:href="#ax" transform="matrix(1,0,0,1,2532,932) translate(52.65169270833334 35.52777777777778)"/><use xlink:href="#ab" transform="matrix(1,0,0,1,2532,932) translate(85.26888020833334 35.52777777777778)"/><use xlink:href="#ay" transform="matrix(1,0,0,1,2532,932) translate(130.58138020833334 35.52777777777778)"/><use xlink:href="#az" transform="matrix(1,0,0,1,2532,932) translate(242.52799479166666 35.52777777777778)"/><use xlink:href="#af" transform="matrix(1,0,0,1,2532,932) translate(263.4806857638889 35.52777777777778)"/><use xlink:href="#ab" transform="matrix(1,0,0,1,2532,932) translate(296.0978732638889 35.52777777777778)"/><use xlink:href="#ay" transform="matrix(1,0,0,1,2532,932) translate(341.4103732638889 35.52777777777778)"/><use xlink:href="#ac" transform="matrix(1,0,0,1,2532,932) translate(453.3569878472222 35.52777777777778)"/><use xlink:href="#aA" transform="matrix(1,0,0,1,2532,932) translate(474.30967881944446 35.52777777777778)"/></g><path d="M3578.48 960.98H3099.5V959h478.98zm462.5-6.94l-.1 1.05-.24 1.06-.42 1-.57.94-.72.83-.83.72-.93.57-1 .42-1.08.25-1.06.08h-431.1V959h431.02l.83-.06.75-.18.73-.3.67-.42.6-.5.5-.6.42-.68.3-.73.2-.76.06-.84v-53.38h1.94z" stroke="#e81313" stroke-width=".05" fill="#e81313"/><path d="M4040 899.6l.97-.06v1.07h-1.94v-1.06z" fill="#e81313"/><path stroke="#e81313" stroke-width=".05" fill="#e81313"/><path d="M3098.5 964.63l-14.26-4.63 14.26-4.63z" fill="#e81313"/><path d="M3099.48 965.98l-18.4-5.98 18.4-5.98zm-12.1-5.98l10.15 3.3v-6.6z" stroke="#e81313" stroke-width=".05" fill="#e81313"/><g><use xlink:href="#aB" transform="matrix(1,0,0,1,3578.4810836190436,949.2447916666666) translate(0 17.22222222222222)"/></g><path d="M2800 918.5v-61.12" stroke="#3a414a" fill="none"/><path d="M2800.47 919h-.94v-.5h.94z" stroke="#3a414a" stroke-width=".05" fill="#3a414a"/><path d="M2800 842.62l4.64 14.26h-9.28z" stroke="#3a414a" fill="#3a414a"/><path d="M4405.9 1006a6 6 0 0 1 6-6h428a6 6 0 0 1 6 6v68a6 6 0 0 1-6 6h-428a6 6 0 0 1-6-6z" stroke="#3a414a" stroke-width="2" fill="#b8f5ed"/><g><use xlink:href="#aC" transform="matrix(1,0,0,1,4417.885569706048,1012) translate(52.57465277777777 35.52777777777778)"/><use xlink:href="#aD" transform="matrix(1,0,0,1,4417.885569706048,1012) translate(145.85807291666663 35.52777777777778)"/><use xlink:href="#aE" transform="matrix(1,0,0,1,4417.885569706048,1012) translate(230.35243055555554 35.52777777777778)"/></g><path d="M4322.07 1033.96l.06.83.2.75.3.73.4.67.5.6.6.5.68.42.74.3.77.2.83.06h59.25v1.94h-59.33l-1.05-.08-1.06-.26-1.02-.42-.93-.58-.84-.7-.7-.84-.6-.93-.4-1-.26-1.08-.08-1.06V930.76h1.95zm0-124.72h-1.95v-98.5h1.95zM4238.3 801V799h67V801z" stroke="#008a0e" stroke-width=".05" fill="#008a0e"/><path d="M4238.32 800.98h-1.15l.13-.98-.1-.88 1.12-.1z" fill="#008a0e"/><path stroke="#008a0e" stroke-width=".05" fill="#008a0e"/><path d="M4401.65 1040l-14.27 4.63v-9.27z" fill="#008a0e"/><path d="M4404.8 1040l-18.4 5.98v-11.96zm-16.44 3.3l10.13-3.3-10.14-3.3z" stroke="#008a0e" stroke-width=".05" fill="#008a0e"/><g><use xlink:href="#aF" transform="matrix(1,0,0,1,4305.293147540547,909.2447916666666) translate(0 17.22222222222222)"/></g><path d="M5027 965.8a7.8 7.8 0 0 1 7.55-5.8h305.34a4.6 4.6 0 0 1 4.44 5.8l-39.57 148.4a7.8 7.8 0 0 1-7.55 5.8H4991.9a4.6 4.6 0 0 1-4.47-5.8z" stroke="#3a414a" stroke-width="2" fill="#fff7a1"/><g><use xlink:href="#ar" transform="matrix(1,0,0,1,4990.885569706046,965) translate(80.31793402777778 68.40277777777777)"/><use xlink:href="#aG" transform="matrix(1,0,0,1,4990.885569706046,965) translate(159.22418402777777 68.40277777777777)"/><use xlink:href="#as" transform="matrix(1,0,0,1,4990.885569706046,965) translate(238.62956597222222 68.40277777777777)"/><use xlink:href="#aH" transform="matrix(1,0,0,1,4990.885569706046,965) translate(126.37782986111112 95.29079861111111)"/><use xlink:href="#aI" transform="matrix(1,0,0,1,4990.885569706046,965) translate(159.90647569444445 95.29079861111111)"/></g><path d="M5445.9 1006a6 6 0 0 1 6-6h548a6 6 0 0 1 6 6v68a6 6 0 0 1-6 6h-548a6 6 0 0 1-6-6z" stroke="#3a414a" stroke-width="2" fill="#b8f5ed"/><g><use xlink:href="#aJ" transform="matrix(1,0,0,1,5457.885569706046,1012) translate(28.31358506944443 35.52777777777778)"/><use xlink:href="#aK" transform="matrix(1,0,0,1,5457.885569706046,1012) translate(102.66254340277776 35.52777777777778)"/><use xlink:href="#aa" transform="matrix(1,0,0,1,5457.885569706046,1012) translate(181.56879340277774 35.52777777777778)"/><use xlink:href="#ab" transform="matrix(1,0,0,1,5457.885569706046,1012) translate(252.21766493055551 35.52777777777778)"/><use xlink:href="#aL" transform="matrix(1,0,0,1,5457.885569706046,1012) translate(297.53016493055554 35.52777777777778)"/><use xlink:href="#aM" transform="matrix(1,0,0,1,5457.885569706046,1012) translate(322.2914496527777 35.52777777777778)"/><use xlink:href="#aN" transform="matrix(1,0,0,1,5457.885569706046,1012) translate(458.60872395833337 35.52777777777778)"/></g><path d="M4847.4 1040h142.4" stroke="#3a414a" fill="none"/><path d="M4847.4 1040.47h-.5v-.94h.5z" stroke="#3a414a" stroke-width=".05" fill="#3a414a"/><path d="M5004.57 1040l-14.27 4.63v-9.27z" stroke="#3a414a" fill="#3a414a"/><path d="M5326.1 1040h102.4" stroke="#3a414a" fill="none"/><path d="M5326.1 1040.47h-.64l.25-.94h.4z" stroke="#3a414a" stroke-width=".05" fill="#3a414a"/><path d="M5443.27 1040l-14.27 4.63v-9.27z" stroke="#3a414a" fill="#3a414a"/><path d="M6007.4 1040h232.5a6 6 0 0 0 6-6V737.38" stroke="#3a414a" fill="none"/><path d="M6007.4 1040.47h-.5v-.94h.5z" stroke="#3a414a" stroke-width=".05" fill="#3a414a"/><path d="M6245.9 722.62l4.62 14.26h-9.27z" stroke="#3a414a" fill="#3a414a"/><defs><path d="M180 0v-1490h510c348 0 508 209 508 474 0 266-160 477-507 477H370V0H180zm190-706h312c236 0 327-133 327-310 0-176-91-307-329-307H370v617" id="aO"/><path d="M471 26C259 26 90-98 90-318c0-256 228-303 435-329 202-27 287-16 287-108 0-139-79-219-234-219-161 0-248 86-283 164l-173-57c86-203 278-265 451-265 150 0 419 46 419 395V0H815v-152h-12C765-73 660 26 471 26zm31-159c199 0 310-134 310-271v-155c-30 35-226 55-295 64-131 17-246 59-246 186 0 116 97 176 231 176" id="aP"/><path d="M538 24C308 24 148-78 108-271l171-41c32 123 123 178 257 178 156 0 256-77 256-169 0-77-54-128-164-154l-186-44c-203-48-300-148-300-305 0-192 176-326 414-326 230 0 351 112 402 269l-163 42c-31-80-94-158-238-158-133 0-233 69-233 162 0 83 57 129 188 160l169 40c203 48 298 149 298 302 0 196-179 339-441 339" id="aQ"/><path d="M158 418v-1536h174v179h20c37-59 106-193 324-193 279 0 474 222 474 576 0 356-194 580-473 580-213 0-288-135-325-197h-14v591H158zm492-555c209 0 317-186 317-421 0-232-105-413-317-413-206 0-314 166-314 413 0 249 111 421 314 421" id="aR"/><path d="M338-670V0H158v-1490h180v566c73-149 190-208 336-208 226 0 379 139 379 422V0H872v-695c0-172-96-275-252-275-161 0-282 109-282 300" id="aS"/><path d="M158 0v-1118h174v172h12c41-113 157-188 290-188 26 0 70 2 91 3v181c-11-2-60-10-108-10-161 0-279 109-279 260V0H158" id="aT"/><path d="M628 24c-324 0-524-230-524-574 0-343 198-582 503-582 237 0 487 146 487 559v75H286c9 234 145 362 343 362 132 0 231-58 273-172l174 48C1024-91 857 24 628 24zM287-650h624c-17-190-120-322-304-322-192 0-309 151-320 322" id="aU"/><g id="a"><use transform="matrix(0.010850694444444444,0,0,0.010850694444444444,0,0)" xlink:href="#aO"/><use transform="matrix(0.010850694444444444,0,0,0.010850694444444444,14.192708333333332,0)" xlink:href="#aP"/><use transform="matrix(0.010850694444444444,0,0,0.010850694444444444,26.671006944444443,0)" xlink:href="#aQ"/><use transform="matrix(0.010850694444444444,0,0,0.010850694444444444,38.400607638888886,0)" xlink:href="#aQ"/><use transform="matrix(0.010850694444444444,0,0,0.010850694444444444,50.13020833333333,0)" xlink:href="#aR"/><use transform="matrix(0.010850694444444444,0,0,0.010850694444444444,63.73697916666666,0)" xlink:href="#aS"/><use transform="matrix(0.010850694444444444,0,0,0.010850694444444444,76.87717013888889,0)" xlink:href="#aT"/><use transform="matrix(0.010850694444444444,0,0,0.010850694444444444,85.24305555555556,0)" xlink:href="#aP"/><use transform="matrix(0.010850694444444444,0,0,0.010850694444444444,97.72135416666666,0)" xlink:href="#aQ"/><use transform="matrix(0.010850694444444444,0,0,0.010850694444444444,109.45095486111111,0)" xlink:href="#aU"/></g><path d="M626 20c-262 0-458-168-468-396h184c12 133 134 229 284 229 180 0 311-137 311-326 0-192-136-335-323-335-92 0-196 33-255 78l-178-22 88-738h784v167H429l-51 435h8c61-51 160-87 263-87 273 0 474 211 474 499 0 286-210 496-497 496" id="aV"/><path d="M653-1490V0H466v-1314h-10L96-1047v-204l324-239h233" id="aW"/><path d="M154 0v-137l495-537c165-179 249-281 249-418 0-156-121-253-280-253-170 0-278 110-278 278H158c0-264 200-443 465-443 266 0 455 183 455 416 0 161-73 288-336 568L416-179v12h687V0H154" id="aX"/><path d="M218-607c0-325 108-727 258-974h175c-155 315-250 682-250 974 0 265 78 531 250 886H476C306-10 218-315 218-607" id="aY"/><path d="M96 279C273-86 346-350 346-607c0-292-95-659-250-974h175c150 246 258 650 258 974 0 297-91 602-258 886H96" id="aZ"/><path d="M226 279v-1860h398v153H398V126h226v153H226" id="ba"/><path d="M295 13c-75 0-135-60-135-135s60-135 135-135 135 60 135 135S370 13 295 13zm0-809c-75 0-135-60-135-135s60-135 135-135 135 60 135 135-60 135-135 135" id="bb"/><path d="M646 20c-249 0-524-159-524-708 0-524 209-822 547-822 250 0 431 161 467 395H950c-33-129-126-227-281-227-229 0-367 208-367 566h12c80-124 212-198 367-198 255 0 467 205 467 493 0 278-198 501-502 501zm0-167c179 0 318-148 318-334 0-182-133-328-313-328-181 0-322 156-322 330 0 176 134 332 317 332" id="bc"/><path d="M123 279V126h226v-1554H123v-153h398V279H123" id="bd"/><g id="b"><use transform="matrix(0.010850694444444444,0,0,0.010850694444444444,0,0)" xlink:href="#aQ"/><use transform="matrix(0.010850694444444444,0,0,0.010850694444444444,11.729600694444445,0)" xlink:href="#aS"/><use transform="matrix(0.010850694444444444,0,0,0.010850694444444444,24.869791666666664,0)" xlink:href="#aP"/><use transform="matrix(0.010850694444444444,0,0,0.010850694444444444,37.34809027777777,0)" xlink:href="#aV"/><use transform="matrix(0.010850694444444444,0,0,0.010850694444444444,50.8572048611111,0)" xlink:href="#aW"/><use transform="matrix(0.010850694444444444,0,0,0.010850694444444444,59.89583333333332,0)" xlink:href="#aX"/><use transform="matrix(0.010850694444444444,0,0,0.010850694444444444,73.44835069444443,0)" xlink:href="#aY"/><use transform="matrix(0.010850694444444444,0,0,0.010850694444444444,81.55381944444443,0)" xlink:href="#aO"/><use transform="matrix(0.010850694444444444,0,0,0.010850694444444444,95.74652777777776,0)" xlink:href="#aP"/><use transform="matrix(0.010850694444444444,0,0,0.010850694444444444,108.22482638888887,0)" xlink:href="#aQ"/><use transform="matrix(0.010850694444444444,0,0,0.010850694444444444,119.95442708333331,0)" xlink:href="#aQ"/><use transform="matrix(0.010850694444444444,0,0,0.010850694444444444,131.68402777777777,0)" xlink:href="#aR"/><use transform="matrix(0.010850694444444444,0,0,0.010850694444444444,145.29079861111111,0)" xlink:href="#aS"/><use transform="matrix(0.010850694444444444,0,0,0.010850694444444444,158.43098958333334,0)" xlink:href="#aT"/><use transform="matrix(0.010850694444444444,0,0,0.010850694444444444,166.796875,0)" xlink:href="#aP"/><use transform="matrix(0.010850694444444444,0,0,0.010850694444444444,179.27517361111111,0)" xlink:href="#aQ"/><use transform="matrix(0.010850694444444444,0,0,0.010850694444444444,191.0047743055556,0)" xlink:href="#aU"/><use transform="matrix(0.010850694444444444,0,0,0.010850694444444444,203.7109375,0)" xlink:href="#aZ"/><use transform="matrix(0.010850694444444444,0,0,0.010850694444444444,211.81640625,0)" xlink:href="#ba"/><use transform="matrix(0.010850694444444444,0,0,0.010850694444444444,219.921875,0)" xlink:href="#bb"/><use transform="matrix(0.010850694444444444,0,0,0.010850694444444444,226.3237847222222,0)" xlink:href="#aW"/><use transform="matrix(0.010850694444444444,0,0,0.010850694444444444,235.36241319444449,0)" xlink:href="#bc"/><use transform="matrix(0.010850694444444444,0,0,0.010850694444444444,249.1427951388889,0)" xlink:href="#bd"/></g><path d="M180 0v-1490h510c348 0 508 194 508 460 0 198-88 351-276 417L1256 0h-220L726-579c-117 2-238 0-356 1V0H180zm190-747h312c235 0 327-108 327-283 0-177-92-293-329-293H370v576" id="be"/><path d="M409 0L70-1118h191c89 329 165 560 243 925 75-353 154-601 240-925h192c85 325 161 564 235 922 77-354 157-598 244-922h191L1267 0h-179c-86-307-176-590-250-913C763-588 675-308 588 0H409" id="bf"/><g id="c"><use transform="matrix(0.010850694444444444,0,0,0.010850694444444444,0,0)" xlink:href="#be"/><use transform="matrix(0.010850694444444444,0,0,0.010850694444444444,14.192708333333332,0)" xlink:href="#aP"/><use transform="matrix(0.010850694444444444,0,0,0.010850694444444444,26.671006944444443,0)" xlink:href="#bf"/></g><path d="M657 26c-323 0-524-166-541-416h195c15 169 171 246 346 246 202 0 356-106 356-265 5-203-294-238-475-293-239-73-380-191-380-389 0-252 224-419 512-419 294 0 499 171 508 396H992c-17-145-151-228-328-228-193 0-321 102-321 242 0 156 175 211 284 241l149 41c160 44 422 134 422 412 0 244-197 432-541 432" id="bg"/><path d="M577 24c-279 0-473-224-473-580 0-354 195-576 474-576 218 0 287 134 324 193h14v-551h180V0H922v-173h-20C865-111 790 24 577 24zm27-161c203 0 314-172 314-421 0-247-108-413-314-413-212 0-317 181-317 413 0 235 108 421 317 421" id="bh"/><g id="d"><use transform="matrix(0.010850694444444444,0,0,0.010850694444444444,0,0)" xlink:href="#bg"/><use transform="matrix(0.010850694444444444,0,0,0.010850694444444444,14.2578125,0)" xlink:href="#aU"/><use transform="matrix(0.010850694444444444,0,0,0.010850694444444444,27.213541666666664,0)" xlink:href="#aU"/><use transform="matrix(0.010850694444444444,0,0,0.010850694444444444,40.16927083333333,0)" xlink:href="#bh"/></g><g id="e"><use transform="matrix(0.010850694444444444,0,0,0.010850694444444444,0,0)" xlink:href="#aW"/><use transform="matrix(0.010850694444444444,0,0,0.010850694444444444,9.038628472222221,0)" xlink:href="#bc"/></g><path d="M677 24c-213 0-288-135-325-197h-20V0H158v-1490h180v551h14c37-59 106-193 324-193 279 0 474 222 474 576 0 356-194 580-473 580zm-27-161c209 0 317-186 317-421 0-232-105-413-317-413-206 0-314 166-314 413 0 249 111 421 314 421" id="bi"/><path d="M140 405l46-156c120 36 205 19 263-150l32-93L54-1118h197c107 313 237 620 324 950 87-331 219-637 326-950h196L606 167c-68 178-176 259-334 259-64 0-113-12-132-21" id="bj"/><path d="M598-1118v154H368v674c0 100 37 144 132 144 23 0 62-6 92-12L629-6c-37 13-88 20-134 20-193 0-307-107-307-290v-688H20v-154h168v-266h180v266h230" id="bk"/><g id="f"><use transform="matrix(0.010850694444444444,0,0,0.010850694444444444,0,0)" xlink:href="#bi"/><use transform="matrix(0.010850694444444444,0,0,0.010850694444444444,13.172743055555552,0)" xlink:href="#bj"/><use transform="matrix(0.010850694444444444,0,0,0.010850694444444444,25.987413194444443,0)" xlink:href="#bk"/><use transform="matrix(0.010850694444444444,0,0,0.010850694444444444,33.04036458333333,0)" xlink:href="#aU"/><use transform="matrix(0.010850694444444444,0,0,0.010850694444444444,45.996093749999986,0)" xlink:href="#aQ"/></g><path d="M613 24c-304 0-509-231-509-576 0-350 205-580 509-580 305 0 511 230 511 580 0 345-206 576-511 576zm0-161c226 0 329-195 329-415 0-222-103-419-329-419-223 0-326 196-326 419 0 220 103 415 326 415" id="bl"/><g id="g"><use transform="matrix(0.010850694444444444,0,0,0.010850694444444444,0,0)" xlink:href="#be"/><use transform="matrix(0.010850694444444444,0,0,0.010850694444444444,13.975694444444445,0)" xlink:href="#bl"/><use transform="matrix(0.010850694444444444,0,0,0.010850694444444444,27.30034722222222,0)" xlink:href="#bl"/><use transform="matrix(0.010850694444444444,0,0,0.010850694444444444,40.625,0)" xlink:href="#bk"/></g><path d="M180 0v-1490h190c0 262 1 526-3 784 217-279 467-523 702-784h249L716-845 1319 0h-225L585-716 370-489V0H180" id="bm"/><g id="h"><use transform="matrix(0.010850694444444444,0,0,0.010850694444444444,0,0)" xlink:href="#bm"/><use transform="matrix(0.010850694444444444,0,0,0.010850694444444444,14.051649305555555,0)" xlink:href="#aU"/><use transform="matrix(0.010850694444444444,0,0,0.010850694444444444,26.573350694444443,0)" xlink:href="#bj"/></g><path d="M1096 418H916v-591h-14C865-111 790 24 577 24c-279 0-473-224-473-580 0-354 195-576 474-576 218 0 287 134 324 193h20v-179h174V418zM604-137c203 0 314-172 314-421 0-247-108-413-314-413-212 0-317 181-317 413 0 235 108 421 317 421" id="bn"/><path d="M537 14c-226 0-379-139-379-422v-710h180v695c0 172 97 275 253 275 160 0 281-109 281-300v-670h181V0H879v-209C806-46 684 14 537 14" id="bo"/><path d="M338-670V0H158v-1118h173l1 207c72-158 192-221 342-221 226 0 378 139 378 422V0H872v-695c0-172-96-275-252-275-161 0-282 109-282 300" id="bp"/><path d="M613 24c-304 0-509-231-509-576 0-350 205-580 509-580 216 0 392 114 453 309l-173 49c-33-115-133-197-280-197-223 0-326 196-326 419 0 220 103 415 326 415 150 0 252-85 285-206l172 49C1010-95 832 24 613 24" id="bq"/><g id="i"><use transform="matrix(0.010850694444444444,0,0,0.010850694444444444,0,0)" xlink:href="#bg"/><use transform="matrix(0.010850694444444444,0,0,0.010850694444444444,14.2578125,0)" xlink:href="#aU"/><use transform="matrix(0.010850694444444444,0,0,0.010850694444444444,27.213541666666664,0)" xlink:href="#bn"/><use transform="matrix(0.010850694444444444,0,0,0.010850694444444444,40.8203125,0)" xlink:href="#bo"/><use transform="matrix(0.010850694444444444,0,0,0.010850694444444444,53.96050347222222,0)" xlink:href="#aU"/><use transform="matrix(0.010850694444444444,0,0,0.010850694444444444,66.91623263888889,0)" xlink:href="#bp"/><use transform="matrix(0.010850694444444444,0,0,0.010850694444444444,80.04557291666666,0)" xlink:href="#bq"/><use transform="matrix(0.010850694444444444,0,0,0.010850694444444444,92.74088541666666,0)" xlink:href="#aU"/></g><path d="M120-303v-155l652-1032h231v1020h202v167h-202V0H821v-303H120zm702-167v-782h-12L323-482v12h499" id="br"/><use transform="matrix(0.010850694444444444,0,0,0.010850694444444444,0,0)" xlink:href="#br" id="j"/><g id="k"><use transform="matrix(0.010850694444444444,0,0,0.010850694444444444,0,0)" xlink:href="#bi"/><use transform="matrix(0.010850694444444444,0,0,0.010850694444444444,13.172743055555552,0)" xlink:href="#bj"/><use transform="matrix(0.010850694444444444,0,0,0.010850694444444444,25.987413194444443,0)" xlink:href="#bk"/><use transform="matrix(0.010850694444444444,0,0,0.010850694444444444,33.04036458333333,0)" xlink:href="#aU"/><use transform="matrix(0.010850694444444444,0,0,0.010850694444444444,45.996093749999986,0)" xlink:href="#aQ"/></g><path d="M158 0v-1118h180V0H158zm91-1301c-68 0-125-53-125-119s57-119 125-119c69 0 126 53 126 119s-57 119-126 119" id="bs"/><path d="M611 442c-248 0-391-105-460-228l146-94c47 65 117 165 314 165 178 0 307-82 307-266v-224h-17C863-141 792-18 576-18c-268 0-472-195-472-546 0-346 197-568 476-568 216 0 288 133 326 193h17v-179h175V29c0 289-215 413-487 413zm-5-620c203 0 314-146 314-390 0-237-108-403-314-403-213 0-319 180-319 403 0 230 109 390 319 390" id="bt"/><g id="l"><use transform="matrix(0.010850694444444444,0,0,0.010850694444444444,0,0)" xlink:href="#aQ"/><use transform="matrix(0.010850694444444444,0,0,0.010850694444444444,11.729600694444445,0)" xlink:href="#bk"/><use transform="matrix(0.010850694444444444,0,0,0.010850694444444444,19.108072916666668,0)" xlink:href="#aP"/><use transform="matrix(0.010850694444444444,0,0,0.010850694444444444,31.586371527777775,0)" xlink:href="#aT"/><use transform="matrix(0.010850694444444444,0,0,0.010850694444444444,40.299479166666664,0)" xlink:href="#bk"/><use transform="matrix(0.010850694444444444,0,0,0.010850694444444444,47.56944444444444,0)" xlink:href="#bs"/><use transform="matrix(0.010850694444444444,0,0,0.010850694444444444,52.951388888888886,0)" xlink:href="#bp"/><use transform="matrix(0.010850694444444444,0,0,0.010850694444444444,66.08072916666666,0)" xlink:href="#bt"/></g><g id="m"><use transform="matrix(0.010850694444444444,0,0,0.010850694444444444,0,0)" xlink:href="#aP"/><use transform="matrix(0.010850694444444444,0,0,0.010850694444444444,12.47829861111111,0)" xlink:href="#bk"/></g><path d="M646 20c-332 0-524-278-524-764 0-483 194-766 524-766s524 283 524 766c0 485-191 764-524 764zm0-166c218 0 341-220 341-598 0-380-123-601-341-601s-341 222-341 601c0 378 123 598 341 598" id="bu"/><path d="M65 0l393-574-370-544h210c88 136 192 297 267 435 67-142 176-302 264-435h206L661-564 1053 0H844c-94-144-206-310-287-458C484-308 366-142 273 0H65" id="bv"/><g id="n"><use transform="matrix(0.010850694444444444,0,0,0.010850694444444444,0,0)" xlink:href="#bu"/><use transform="matrix(0.010850694444444444,0,0,0.010850694444444444,14.019097222222221,0)" xlink:href="#bv"/><use transform="matrix(0.010850694444444444,0,0,0.010850694444444444,26.15017361111111,0)" xlink:href="#bu"/><use transform="matrix(0.010850694444444444,0,0,0.010850694444444444,40.16927083333333,0)" xlink:href="#bu"/><use transform="matrix(0.010850694444444444,0,0,0.010850694444444444,54.18836805555556,0)" xlink:href="#bu"/><use transform="matrix(0.010850694444444444,0,0,0.010850694444444444,68.20746527777777,0)" xlink:href="#bu"/><use transform="matrix(0.010850694444444444,0,0,0.010850694444444444,82.2265625,0)" xlink:href="#bu"/><use transform="matrix(0.010850694444444444,0,0,0.010850694444444444,96.24565972222221,0)" xlink:href="#bu"/><use transform="matrix(0.010850694444444444,0,0,0.010850694444444444,110.26475694444446,0)" xlink:href="#bu"/><use transform="matrix(0.010850694444444444,0,0,0.010850694444444444,124.28385416666669,0)" xlink:href="#bu"/></g><g id="o"><use transform="matrix(0.010850694444444444,0,0,0.010850694444444444,0,0)" xlink:href="#aQ"/><use transform="matrix(0.010850694444444444,0,0,0.010850694444444444,11.729600694444445,0)" xlink:href="#aS"/><use transform="matrix(0.010850694444444444,0,0,0.010850694444444444,24.869791666666664,0)" xlink:href="#aP"/><use transform="matrix(0.010850694444444444,0,0,0.010850694444444444,37.34809027777777,0)" xlink:href="#aV"/><use transform="matrix(0.010850694444444444,0,0,0.010850694444444444,50.8572048611111,0)" xlink:href="#aW"/><use transform="matrix(0.010850694444444444,0,0,0.010850694444444444,59.89583333333332,0)" xlink:href="#aX"/><use transform="matrix(0.010850694444444444,0,0,0.010850694444444444,73.44835069444443,0)" xlink:href="#aY"/><use transform="matrix(0.010850694444444444,0,0,0.010850694444444444,81.55381944444443,0)" xlink:href="#be"/><use transform="matrix(0.010850694444444444,0,0,0.010850694444444444,95.74652777777776,0)" xlink:href="#aP"/><use transform="matrix(0.010850694444444444,0,0,0.010850694444444444,108.22482638888887,0)" xlink:href="#bf"/></g><g id="p"><use transform="matrix(0.010850694444444444,0,0,0.010850694444444444,0,0)" xlink:href="#bg"/><use transform="matrix(0.010850694444444444,0,0,0.010850694444444444,14.2578125,0)" xlink:href="#aU"/><use transform="matrix(0.010850694444444444,0,0,0.010850694444444444,27.213541666666664,0)" xlink:href="#aU"/><use transform="matrix(0.010850694444444444,0,0,0.010850694444444444,40.16927083333333,0)" xlink:href="#bh"/></g><path d="M593-100v-404H195v-159h398v-403h169v403h398v159H762v404H593" id="bw"/><use transform="matrix(0.010850694444444444,0,0,0.010850694444444444,0,0)" xlink:href="#bw" id="q"/><g id="r"><use transform="matrix(0.010850694444444444,0,0,0.010850694444444444,0,0)" xlink:href="#be"/><use transform="matrix(0.010850694444444444,0,0,0.010850694444444444,13.975694444444445,0)" xlink:href="#bl"/><use transform="matrix(0.010850694444444444,0,0,0.010850694444444444,27.30034722222222,0)" xlink:href="#bl"/><use transform="matrix(0.010850694444444444,0,0,0.010850694444444444,40.625,0)" xlink:href="#bk"/></g><path d="M635 20c-292 0-500-160-510-396h192c11 142 145 229 315 229 187 0 323-105 323-260 0-161-125-274-346-274H488v-165h121c174 0 294-100 294-254 0-148-104-245-266-245-152 0-291 85-297 230H157c8-234 222-395 484-395 278 0 448 188 448 400 0 168-95 291-247 336v12c190 31 301 169 301 357 0 244-216 425-508 425" id="bx"/><g id="s"><use transform="matrix(0.010850694444444444,0,0,0.010850694444444444,0,0)" xlink:href="#bg"/><use transform="matrix(0.010850694444444444,0,0,0.010850694444444444,14.2578125,0)" xlink:href="#aU"/><use transform="matrix(0.010850694444444444,0,0,0.010850694444444444,27.213541666666664,0)" xlink:href="#bn"/><use transform="matrix(0.010850694444444444,0,0,0.010850694444444444,40.8203125,0)" xlink:href="#bo"/><use transform="matrix(0.010850694444444444,0,0,0.010850694444444444,53.96050347222222,0)" xlink:href="#aU"/><use transform="matrix(0.010850694444444444,0,0,0.010850694444444444,66.91623263888889,0)" xlink:href="#bp"/><use transform="matrix(0.010850694444444444,0,0,0.010850694444444444,80.04557291666666,0)" xlink:href="#bq"/><use transform="matrix(0.010850694444444444,0,0,0.010850694444444444,92.74088541666666,0)" xlink:href="#aU"/><use transform="matrix(0.010850694444444444,0,0,0.010850694444444444,105.44704861111111,0)" xlink:href="#aZ"/><use transform="matrix(0.010850694444444444,0,0,0.010850694444444444,113.5525173611111,0)" xlink:href="#ba"/><use transform="matrix(0.010850694444444444,0,0,0.010850694444444444,121.6579861111111,0)" xlink:href="#bb"/><use transform="matrix(0.010850694444444444,0,0,0.010850694444444444,128.05989583333331,0)" xlink:href="#bx"/><use transform="matrix(0.010850694444444444,0,0,0.010850694444444444,141.78602430555554,0)" xlink:href="#aX"/><use transform="matrix(0.010850694444444444,0,0,0.010850694444444444,155.33854166666666,0)" xlink:href="#bd"/></g><g id="t"><use transform="matrix(0.010850694444444444,0,0,0.010850694444444444,0,0)" xlink:href="#be"/><use transform="matrix(0.010850694444444444,0,0,0.010850694444444444,13.975694444444445,0)" xlink:href="#bl"/><use transform="matrix(0.010850694444444444,0,0,0.010850694444444444,27.30034722222222,0)" xlink:href="#bl"/><use transform="matrix(0.010850694444444444,0,0,0.010850694444444444,40.625,0)" xlink:href="#bk"/></g><path d="M481 0L54-1118h197c107 314 236 620 325 951 87-331 217-637 324-951h197L670 0H481" id="by"/><g id="u"><use transform="matrix(0.010850694444444444,0,0,0.010850694444444444,0,0)" xlink:href="#aO"/><use transform="matrix(0.010850694444444444,0,0,0.010850694444444444,14.192708333333332,0)" xlink:href="#aT"/><use transform="matrix(0.010850694444444444,0,0,0.010850694444444444,22.90581597222222,0)" xlink:href="#bs"/><use transform="matrix(0.010850694444444444,0,0,0.010850694444444444,28.287760416666664,0)" xlink:href="#by"/><use transform="matrix(0.010850694444444444,0,0,0.010850694444444444,40.66840277777778,0)" xlink:href="#aP"/><use transform="matrix(0.010850694444444444,0,0,0.010850694444444444,53.146701388888886,0)" xlink:href="#bk"/><use transform="matrix(0.010850694444444444,0,0,0.010850694444444444,60.19965277777778,0)" xlink:href="#aU"/></g><g id="v"><use transform="matrix(0.010850694444444444,0,0,0.010850694444444444,0,0)" xlink:href="#bm"/><use transform="matrix(0.010850694444444444,0,0,0.010850694444444444,14.051649305555555,0)" xlink:href="#aU"/><use transform="matrix(0.010850694444444444,0,0,0.010850694444444444,26.573350694444443,0)" xlink:href="#bj"/></g><path d="M174-520v-126l944-476v196L406-588v12l712 338v194" id="bz"/><use transform="matrix(0.010850694444444444,0,0,0.010850694444444444,0,0)" xlink:href="#bz" id="w"/><path d="M158 0v-1490h180v865h22l478-493h223L593-638 1096 0H865L456-523 338-412V0H158" id="bA"/><path d="M295 13c-75 0-135-60-135-135s60-135 135-135 135 60 135 135S370 13 295 13" id="bB"/><g id="x"><use transform="matrix(0.010850694444444444,0,0,0.010850694444444444,0,0)" xlink:href="#aQ"/><use transform="matrix(0.010850694444444444,0,0,0.010850694444444444,11.729600694444445,0)" xlink:href="#aU"/><use transform="matrix(0.010850694444444444,0,0,0.010850694444444444,24.68532986111111,0)" xlink:href="#bq"/><use transform="matrix(0.010850694444444444,0,0,0.010850694444444444,37.380642361111114,0)" xlink:href="#aR"/><use transform="matrix(0.010850694444444444,0,0,0.010850694444444444,50.98741319444444,0)" xlink:href="#aX"/><use transform="matrix(0.010850694444444444,0,0,0.010850694444444444,64.53993055555556,0)" xlink:href="#aV"/><use transform="matrix(0.010850694444444444,0,0,0.010850694444444444,78.04904513888889,0)" xlink:href="#bc"/><use transform="matrix(0.010850694444444444,0,0,0.010850694444444444,91.82942708333333,0)" xlink:href="#bA"/><use transform="matrix(0.010850694444444444,0,0,0.010850694444444444,104.02560763888889,0)" xlink:href="#aW"/><use transform="matrix(0.010850694444444444,0,0,0.010850694444444444,113.0642361111111,0)" xlink:href="#bB"/><use transform="matrix(0.010850694444444444,0,0,0.010850694444444444,119.46614583333334,0)" xlink:href="#bp"/></g><g id="y"><use transform="matrix(0.010850694444444444,0,0,0.010850694444444444,0,0)" xlink:href="#aO"/><use transform="matrix(0.010850694444444444,0,0,0.010850694444444444,14.192708333333332,0)" xlink:href="#aT"/><use transform="matrix(0.010850694444444444,0,0,0.010850694444444444,22.90581597222222,0)" xlink:href="#bs"/><use transform="matrix(0.010850694444444444,0,0,0.010850694444444444,28.287760416666664,0)" xlink:href="#by"/><use transform="matrix(0.010850694444444444,0,0,0.010850694444444444,40.66840277777778,0)" xlink:href="#aP"/><use transform="matrix(0.010850694444444444,0,0,0.010850694444444444,53.146701388888886,0)" xlink:href="#bk"/><use transform="matrix(0.010850694444444444,0,0,0.010850694444444444,60.19965277777778,0)" xlink:href="#aU"/></g><g id="z"><use transform="matrix(0.010850694444444444,0,0,0.010850694444444444,0,0)" xlink:href="#bm"/><use transform="matrix(0.010850694444444444,0,0,0.010850694444444444,14.051649305555555,0)" xlink:href="#aU"/><use transform="matrix(0.010850694444444444,0,0,0.010850694444444444,26.573350694444443,0)" xlink:href="#bj"/></g><g id="A"><use transform="matrix(0.010850694444444444,0,0,0.010850694444444444,0,0)" xlink:href="#bx"/><use transform="matrix(0.010850694444444444,0,0,0.010850694444444444,13.726128472222221,0)" xlink:href="#aX"/></g><g id="B"><use transform="matrix(0.010850694444444444,0,0,0.010850694444444444,0,0)" xlink:href="#bg"/><use transform="matrix(0.010850694444444444,0,0,0.010850694444444444,14.2578125,0)" xlink:href="#aU"/><use transform="matrix(0.010850694444444444,0,0,0.010850694444444444,27.213541666666664,0)" xlink:href="#bn"/><use transform="matrix(0.010850694444444444,0,0,0.010850694444444444,40.8203125,0)" xlink:href="#bo"/><use transform="matrix(0.010850694444444444,0,0,0.010850694444444444,53.96050347222222,0)" xlink:href="#aU"/><use transform="matrix(0.010850694444444444,0,0,0.010850694444444444,66.91623263888889,0)" xlink:href="#bp"/><use transform="matrix(0.010850694444444444,0,0,0.010850694444444444,80.04557291666666,0)" xlink:href="#bq"/><use transform="matrix(0.010850694444444444,0,0,0.010850694444444444,92.74088541666666,0)" xlink:href="#aU"/></g><path d="M226-283v-166h904v166H226zm0-434v-166h904v166H226" id="bC"/><use transform="matrix(0.010850694444444444,0,0,0.010850694444444444,0,0)" xlink:href="#bC" id="C"/><use transform="matrix(0.010850694444444444,0,0,0.010850694444444444,0,0)" xlink:href="#aW" id="D"/><path fill="#333" d="M135 0v-1490h340l471 754c59 97 122 210 187 365-32-387-14-721-19-1119h312V0h-341C855-382 627-689 427-1113c32 420 16 695 20 1113H135" id="bD"/><path fill="#333" d="M628 22C291 22 81-210 81-554c0-346 210-578 547-578 336 0 547 232 547 578 0 344-211 576-547 576zm0-236c160 0 242-146 242-341 0-197-82-341-242-341S387-753 387-555c0 195 81 341 241 341" id="bE"/><g id="E"><use transform="matrix(0.008680555555555556,0,0,0.008680555555555556,0,0)" xlink:href="#bD"/><use transform="matrix(0.008680555555555556,0,0,0.008680555555555556,13.550347222222223,0)" xlink:href="#bE"/></g><path d="M633 20c-303 0-511-173-511-416 0-188 124-348 291-378v-8c-145-37-237-174-237-332 0-227 192-396 457-396 261 0 456 169 456 396 0 158-94 295-235 332v8c162 30 291 190 291 378 0 243-212 416-512 416zm0-165c197 0 322-103 322-261 0-165-138-283-322-283-188 0-324 118-324 283 0 158 123 261 324 261zm0-703c157 0 272-101 272-252 0-149-110-246-272-246-165 0-273 97-273 246 0 151 112 252 273 252" id="bF"/><path d="M934 0v166H0V0h934" id="bG"/><path d="M600 0L52-1490h200c166 485 304 806 458 1336 156-533 285-846 449-1336h202L819 0H600" id="bH"/><g id="F"><use transform="matrix(0.010850694444444444,0,0,0.010850694444444444,0,0)" xlink:href="#bi"/><use transform="matrix(0.010850694444444444,0,0,0.010850694444444444,13.823784722222221,0)" xlink:href="#aP"/><use transform="matrix(0.010850694444444444,0,0,0.010850694444444444,26.302083333333332,0)" xlink:href="#aQ"/><use transform="matrix(0.010850694444444444,0,0,0.010850694444444444,38.03168402777778,0)" xlink:href="#aU"/><use transform="matrix(0.010850694444444444,0,0,0.010850694444444444,50.98741319444444,0)" xlink:href="#aV"/><use transform="matrix(0.010850694444444444,0,0,0.010850694444444444,64.49652777777777,0)" xlink:href="#bF"/><use transform="matrix(0.010850694444444444,0,0,0.010850694444444444,78.24435763888889,0)" xlink:href="#bG"/><use transform="matrix(0.010850694444444444,0,0,0.010850694444444444,88.37890625,0)" xlink:href="#bq"/><use transform="matrix(0.010850694444444444,0,0,0.010850694444444444,101.07421875,0)" xlink:href="#aS"/><use transform="matrix(0.010850694444444444,0,0,0.010850694444444444,114.21440972222224,0)" xlink:href="#aU"/><use transform="matrix(0.010850694444444444,0,0,0.010850694444444444,127.1701388888889,0)" xlink:href="#bq"/><use transform="matrix(0.010850694444444444,0,0,0.010850694444444444,139.8654513888889,0)" xlink:href="#bA"/><use transform="matrix(0.010850694444444444,0,0,0.010850694444444444,152.06163194444446,0)" xlink:href="#aY"/><use transform="matrix(0.010850694444444444,0,0,0.010850694444444444,160.16710069444446,0)" xlink:href="#bH"/><use transform="matrix(0.010850694444444444,0,0,0.010850694444444444,174.37065972222223,0)" xlink:href="#aU"/><use transform="matrix(0.010850694444444444,0,0,0.010850694444444444,187.32638888888889,0)" xlink:href="#aT"/><use transform="matrix(0.010850694444444444,0,0,0.010850694444444444,195.69227430555554,0)" xlink:href="#aQ"/><use transform="matrix(0.010850694444444444,0,0,0.010850694444444444,207.421875,0)" xlink:href="#bs"/><use transform="matrix(0.010850694444444444,0,0,0.010850694444444444,212.80381944444449,0)" xlink:href="#bl"/><use transform="matrix(0.010850694444444444,0,0,0.010850694444444444,226.1284722222222,0)" xlink:href="#bp"/></g><path d="M180 0v-1490h528c311 0 458 177 458 395 0 191-114 278-244 313v14c139 9 302 137 302 371 0 225-148 397-499 397H180zm190-168h350c232 0 321-102 321-231 0-149-120-277-311-277H370v508zm0-668h328c160 0 286-101 286-255 0-129-87-231-280-231H370v486" id="bI"/><g id="G"><use transform="matrix(0.010850694444444444,0,0,0.010850694444444444,0,0)" xlink:href="#bI"/><use transform="matrix(0.010850694444444444,0,0,0.010850694444444444,14.539930555555555,0)" xlink:href="#bj"/><use transform="matrix(0.010850694444444444,0,0,0.010850694444444444,27.354600694444443,0)" xlink:href="#bk"/><use transform="matrix(0.010850694444444444,0,0,0.010850694444444444,34.40755208333333,0)" xlink:href="#aU"/></g><g id="H"><use transform="matrix(0.010850694444444444,0,0,0.010850694444444444,0,0)" xlink:href="#be"/><use transform="matrix(0.010850694444444444,0,0,0.010850694444444444,14.192708333333332,0)" xlink:href="#aP"/><use transform="matrix(0.010850694444444444,0,0,0.010850694444444444,26.671006944444443,0)" xlink:href="#bf"/></g><g id="I"><use transform="matrix(0.010850694444444444,0,0,0.010850694444444444,0,0)" xlink:href="#bg"/><use transform="matrix(0.010850694444444444,0,0,0.010850694444444444,14.2578125,0)" xlink:href="#aU"/><use transform="matrix(0.010850694444444444,0,0,0.010850694444444444,27.213541666666664,0)" xlink:href="#aU"/><use transform="matrix(0.010850694444444444,0,0,0.010850694444444444,40.16927083333333,0)" xlink:href="#bh"/><use transform="matrix(0.010850694444444444,0,0,0.010850694444444444,53.77604166666666,0)" xlink:href="#aZ"/></g><g id="J"><use transform="matrix(0.010850694444444444,0,0,0.010850694444444444,0,0)" xlink:href="#bH"/><use transform="matrix(0.010850694444444444,0,0,0.010850694444444444,14.20355902777778,0)" xlink:href="#aU"/><use transform="matrix(0.010850694444444444,0,0,0.010850694444444444,27.159288194444443,0)" xlink:href="#aT"/><use transform="matrix(0.010850694444444444,0,0,0.010850694444444444,35.52517361111111,0)" xlink:href="#aQ"/><use transform="matrix(0.010850694444444444,0,0,0.010850694444444444,47.25477430555556,0)" xlink:href="#bs"/><use transform="matrix(0.010850694444444444,0,0,0.010850694444444444,52.636718749999986,0)" xlink:href="#bl"/><use transform="matrix(0.010850694444444444,0,0,0.010850694444444444,65.96137152777777,0)" xlink:href="#bp"/></g><g id="K"><use transform="matrix(0.010850694444444444,0,0,0.010850694444444444,0,0)" xlink:href="#bI"/><use transform="matrix(0.010850694444444444,0,0,0.010850694444444444,14.539930555555555,0)" xlink:href="#bj"/><use transform="matrix(0.010850694444444444,0,0,0.010850694444444444,27.354600694444443,0)" xlink:href="#bk"/><use transform="matrix(0.010850694444444444,0,0,0.010850694444444444,34.40755208333333,0)" xlink:href="#aU"/></g><g id="L"><use transform="matrix(0.010850694444444444,0,0,0.010850694444444444,0,0)" xlink:href="#bu"/><use transform="matrix(0.010850694444444444,0,0,0.010850694444444444,14.019097222222221,0)" xlink:href="#bv"/><use transform="matrix(0.010850694444444444,0,0,0.010850694444444444,26.15017361111111,0)" xlink:href="#aX"/><use transform="matrix(0.010850694444444444,0,0,0.010850694444444444,39.70269097222222,0)" xlink:href="#aW"/></g><g id="M"><use transform="matrix(0.010850694444444444,0,0,0.010850694444444444,0,0)" xlink:href="#bg"/><use transform="matrix(0.010850694444444444,0,0,0.010850694444444444,14.2578125,0)" xlink:href="#aU"/><use transform="matrix(0.010850694444444444,0,0,0.010850694444444444,27.213541666666664,0)" xlink:href="#aU"/><use transform="matrix(0.010850694444444444,0,0,0.010850694444444444,40.16927083333333,0)" xlink:href="#bh"/></g><path d="M645 0H180v-1490h484c435 0 692 280 692 742 0 466-257 748-711 748zM370-168h263c363 0 539-218 539-580 0-358-176-574-521-574H370v1154" id="bJ"/><g id="N"><use transform="matrix(0.010850694444444444,0,0,0.010850694444444444,0,0)" xlink:href="#bJ"/><use transform="matrix(0.010850694444444444,0,0,0.010850694444444444,16.03732638888889,0)" xlink:href="#aU"/><use transform="matrix(0.010850694444444444,0,0,0.010850694444444444,28.99305555555556,0)" xlink:href="#aT"/><use transform="matrix(0.010850694444444444,0,0,0.010850694444444444,37.70616319444444,0)" xlink:href="#bs"/><use transform="matrix(0.010850694444444444,0,0,0.010850694444444444,43.088107638888886,0)" xlink:href="#by"/><use transform="matrix(0.010850694444444444,0,0,0.010850694444444444,55.143229166666664,0)" xlink:href="#aU"/></g><path d="M338-1490V0H158v-1490h180" id="bK"/><g id="O"><use transform="matrix(0.010850694444444444,0,0,0.010850694444444444,0,0)" xlink:href="#aO"/><use transform="matrix(0.010850694444444444,0,0,0.010850694444444444,14.192708333333332,0)" xlink:href="#bo"/><use transform="matrix(0.010850694444444444,0,0,0.010850694444444444,27.332899305555554,0)" xlink:href="#bi"/><use transform="matrix(0.010850694444444444,0,0,0.010850694444444444,40.939670138888886,0)" xlink:href="#bK"/><use transform="matrix(0.010850694444444444,0,0,0.010850694444444444,46.32161458333333,0)" xlink:href="#bs"/><use transform="matrix(0.010850694444444444,0,0,0.010850694444444444,51.70355902777778,0)" xlink:href="#bq"/></g><g id="P"><use transform="matrix(0.010850694444444444,0,0,0.010850694444444444,0,0)" xlink:href="#bs"/><use transform="matrix(0.010850694444444444,0,0,0.010850694444444444,5.381944444444445,0)" xlink:href="#bp"/></g><path d="M158 0v-1118h175l1 205c55-151 181-225 313-225 147 0 245 90 285 228 53-141 190-228 352-228 194 0 352 125 352 384V0h-181v-749c0-161-105-225-225-225-151 0-243 103-243 244V0H807v-767c0-124-93-207-219-207-131 0-250 92-250 270V0H158" id="bL"/><g id="Q"><use transform="matrix(0.010850694444444444,0,0,0.010850694444444444,0,0)" xlink:href="#bq"/><use transform="matrix(0.010850694444444444,0,0,0.010850694444444444,12.6953125,0)" xlink:href="#bl"/><use transform="matrix(0.010850694444444444,0,0,0.010850694444444444,26.01996527777778,0)" xlink:href="#bL"/><use transform="matrix(0.010850694444444444,0,0,0.010850694444444444,45.48611111111111,0)" xlink:href="#aR"/><use transform="matrix(0.010850694444444444,0,0,0.010850694444444444,59.09288194444444,0)" xlink:href="#aT"/><use transform="matrix(0.010850694444444444,0,0,0.010850694444444444,67.08984375,0)" xlink:href="#aU"/><use transform="matrix(0.010850694444444444,0,0,0.010850694444444444,80.04557291666667,0)" xlink:href="#aQ"/><use transform="matrix(0.010850694444444444,0,0,0.010850694444444444,91.77517361111111,0)" xlink:href="#aQ"/><use transform="matrix(0.010850694444444444,0,0,0.010850694444444444,103.50477430555556,0)" xlink:href="#aU"/><use transform="matrix(0.010850694444444444,0,0,0.010850694444444444,116.46050347222224,0)" xlink:href="#bh"/></g><path d="M678-1118v154H420V0H240v-964H20v-154h220v-149c0-194 155-293 318-293 85 0 141 18 168 30l-50 154c-19-6-47-17-97-17-111 0-159 58-159 166v109h258" id="bM"/><g id="R"><use transform="matrix(0.010850694444444444,0,0,0.010850694444444444,0,0)" xlink:href="#bM"/><use transform="matrix(0.010850694444444444,0,0,0.010850694444444444,7.573784722222222,0)" xlink:href="#bl"/><use transform="matrix(0.010850694444444444,0,0,0.010850694444444444,20.8984375,0)" xlink:href="#aT"/><use transform="matrix(0.010850694444444444,0,0,0.010850694444444444,29.61154513888889,0)" xlink:href="#bL"/></g><g id="S"><use transform="matrix(0.010850694444444444,0,0,0.010850694444444444,0,0)" xlink:href="#bx"/><use transform="matrix(0.010850694444444444,0,0,0.010850694444444444,13.726128472222221,0)" xlink:href="#bx"/></g><g id="T"><use transform="matrix(0.010850694444444444,0,0,0.010850694444444444,0,0)" xlink:href="#aY"/><use transform="matrix(0.010850694444444444,0,0,0.010850694444444444,7.855902777777778,0)" xlink:href="#bq"/><use transform="matrix(0.010850694444444444,0,0,0.010850694444444444,20.55121527777778,0)" xlink:href="#bl"/><use transform="matrix(0.010850694444444444,0,0,0.010850694444444444,33.87586805555556,0)" xlink:href="#bL"/><use transform="matrix(0.010850694444444444,0,0,0.010850694444444444,53.342013888888886,0)" xlink:href="#aR"/><use transform="matrix(0.010850694444444444,0,0,0.010850694444444444,66.94878472222221,0)" xlink:href="#aT"/><use transform="matrix(0.010850694444444444,0,0,0.010850694444444444,74.94574652777777,0)" xlink:href="#aU"/><use transform="matrix(0.010850694444444444,0,0,0.010850694444444444,87.90147569444444,0)" xlink:href="#aQ"/><use transform="matrix(0.010850694444444444,0,0,0.010850694444444444,99.63107638888889,0)" xlink:href="#aQ"/><use transform="matrix(0.010850694444444444,0,0,0.010850694444444444,111.36067708333333,0)" xlink:href="#aU"/><use transform="matrix(0.010850694444444444,0,0,0.010850694444444444,124.31640625,0)" xlink:href="#bh"/></g><g id="U"><use transform="matrix(0.010850694444444444,0,0,0.010850694444444444,0,0)" xlink:href="#bM"/><use transform="matrix(0.010850694444444444,0,0,0.010850694444444444,7.573784722222222,0)" xlink:href="#bl"/><use transform="matrix(0.010850694444444444,0,0,0.010850694444444444,20.8984375,0)" xlink:href="#aT"/><use transform="matrix(0.010850694444444444,0,0,0.010850694444444444,29.61154513888889,0)" xlink:href="#bL"/><use transform="matrix(0.010850694444444444,0,0,0.010850694444444444,49.07769097222221,0)" xlink:href="#aZ"/></g><path fill="#333" d="M601 0v-560L49-1490h357l252 464c38 68 67 130 97 208 96-243 225-446 337-672h356L905-560V0H601" id="bN"/><path fill="#333" d="M633 22C291 22 81-200 81-553c0-345 210-579 537-579 292 0 525 185 525 567v84H378c7 183 109 277 260 277 105 0 184-46 216-132l272 51C1071-99 893 22 633 22zM380-669h474c-15-146-94-237-233-237-143 0-229 99-241 237" id="bO"/><path fill="#333" d="M572 22C302 22 117-98 78-306l279-48c29 105 101 156 224 156 114 0 185-48 185-115 0-118-228-130-337-155-215-49-322-150-322-317 0-215 187-347 470-347 265 0 424 116 466 298l-266 47c-24-76-87-130-196-130-98 0-174 46-174 113 0 56 38 95 144 117l201 40c216 44 320 143 320 302 0 220-207 367-500 367" id="bP"/><g id="V"><use transform="matrix(0.008680555555555556,0,0,0.008680555555555556,0,0)" xlink:href="#bN"/><use transform="matrix(0.008680555555555556,0,0,0.008680555555555556,11.050347222222223,0)" xlink:href="#bO"/><use transform="matrix(0.008680555555555556,0,0,0.008680555555555556,21.640625,0)" xlink:href="#bP"/></g><path d="M180 0v-1490h901v168H370v510h643v168H370V0H180" id="bQ"/><g id="W"><use transform="matrix(0.010850694444444444,0,0,0.010850694444444444,0,0)" xlink:href="#bQ"/><use transform="matrix(0.010850694444444444,0,0,0.010850694444444444,12.57595486111111,0)" xlink:href="#aP"/><use transform="matrix(0.010850694444444444,0,0,0.010850694444444444,25.05425347222222,0)" xlink:href="#bL"/><use transform="matrix(0.010850694444444444,0,0,0.010850694444444444,44.52039930555556,0)" xlink:href="#bs"/><use transform="matrix(0.010850694444444444,0,0,0.010850694444444444,49.90234375,0)" xlink:href="#bK"/><use transform="matrix(0.010850694444444444,0,0,0.010850694444444444,55.392795138888886,0)" xlink:href="#bj"/></g><path d="M180 0v-1490h224l606 953c40 63 108 177 176 312-27-437-7-821-13-1265h190V0h-226C860-448 622-778 356-1262c27 476 11 792 15 1262H180" id="bR"/><g id="X"><use transform="matrix(0.010850694444444444,0,0,0.010850694444444444,0,0)" xlink:href="#bR"/><use transform="matrix(0.010850694444444444,0,0,0.010850694444444444,16.74262152777778,0)" xlink:href="#bo"/><use transform="matrix(0.010850694444444444,0,0,0.010850694444444444,29.8828125,0)" xlink:href="#bL"/><use transform="matrix(0.010850694444444444,0,0,0.010850694444444444,49.34895833333333,0)" xlink:href="#bi"/><use transform="matrix(0.010850694444444444,0,0,0.010850694444444444,62.95572916666666,0)" xlink:href="#aU"/><use transform="matrix(0.010850694444444444,0,0,0.010850694444444444,75.91145833333333,0)" xlink:href="#aT"/></g><path d="M370-1490V0H180v-1490h190" id="bS"/><g id="Y"><use transform="matrix(0.010850694444444444,0,0,0.010850694444444444,0,0)" xlink:href="#bS"/><use transform="matrix(0.010850694444444444,0,0,0.010850694444444444,5.967881944444445,0)" xlink:href="#bp"/><use transform="matrix(0.010850694444444444,0,0,0.010850694444444444,19.09722222222222,0)" xlink:href="#bk"/></g><g id="Z"><use transform="matrix(0.010850694444444444,0,0,0.010850694444444444,0,0)" xlink:href="#aQ"/><use transform="matrix(0.010850694444444444,0,0,0.010850694444444444,11.729600694444445,0)" xlink:href="#aS"/><use transform="matrix(0.010850694444444444,0,0,0.010850694444444444,24.869791666666664,0)" xlink:href="#aP"/><use transform="matrix(0.010850694444444444,0,0,0.010850694444444444,37.34809027777777,0)" xlink:href="#aV"/><use transform="matrix(0.010850694444444444,0,0,0.010850694444444444,50.8572048611111,0)" xlink:href="#aW"/><use transform="matrix(0.010850694444444444,0,0,0.010850694444444444,59.89583333333332,0)" xlink:href="#aX"/><use transform="matrix(0.010850694444444444,0,0,0.010850694444444444,73.44835069444443,0)" xlink:href="#aY"/><use transform="matrix(0.010850694444444444,0,0,0.010850694444444444,81.55381944444443,0)" xlink:href="#be"/><use transform="matrix(0.010850694444444444,0,0,0.010850694444444444,95.52951388888887,0)" xlink:href="#bl"/><use transform="matrix(0.010850694444444444,0,0,0.010850694444444444,108.85416666666664,0)" xlink:href="#bl"/><use transform="matrix(0.010850694444444444,0,0,0.010850694444444444,122.17881944444441,0)" xlink:href="#bk"/></g><g id="aa"><use transform="matrix(0.010850694444444444,0,0,0.010850694444444444,0,0)" xlink:href="#aO"/><use transform="matrix(0.010850694444444444,0,0,0.010850694444444444,14.192708333333332,0)" xlink:href="#bo"/><use transform="matrix(0.010850694444444444,0,0,0.010850694444444444,27.332899305555554,0)" xlink:href="#bi"/><use transform="matrix(0.010850694444444444,0,0,0.010850694444444444,40.939670138888886,0)" xlink:href="#bK"/><use transform="matrix(0.010850694444444444,0,0,0.010850694444444444,46.32161458333333,0)" xlink:href="#bs"/><use transform="matrix(0.010850694444444444,0,0,0.010850694444444444,51.70355902777778,0)" xlink:href="#bq"/></g><g id="ab"><use transform="matrix(0.010850694444444444,0,0,0.010850694444444444,0,0)" xlink:href="#bm"/><use transform="matrix(0.010850694444444444,0,0,0.010850694444444444,14.051649305555555,0)" xlink:href="#aU"/><use transform="matrix(0.010850694444444444,0,0,0.010850694444444444,26.573350694444443,0)" xlink:href="#bj"/></g><use transform="matrix(0.010850694444444444,0,0,0.010850694444444444,0,0)" xlink:href="#bw" id="ac"/><g id="ad"><use transform="matrix(0.010850694444444444,0,0,0.010850694444444444,0,0)" xlink:href="#bQ"/><use transform="matrix(0.010850694444444444,0,0,0.010850694444444444,12.57595486111111,0)" xlink:href="#aP"/><use transform="matrix(0.010850694444444444,0,0,0.010850694444444444,25.05425347222222,0)" xlink:href="#bL"/><use transform="matrix(0.010850694444444444,0,0,0.010850694444444444,44.52039930555556,0)" xlink:href="#bs"/><use transform="matrix(0.010850694444444444,0,0,0.010850694444444444,49.90234375,0)" xlink:href="#bK"/><use transform="matrix(0.010850694444444444,0,0,0.010850694444444444,55.392795138888886,0)" xlink:href="#bj"/></g><g id="ae"><use transform="matrix(0.010850694444444444,0,0,0.010850694444444444,0,0)" xlink:href="#bR"/><use transform="matrix(0.010850694444444444,0,0,0.010850694444444444,16.74262152777778,0)" xlink:href="#bo"/><use transform="matrix(0.010850694444444444,0,0,0.010850694444444444,29.8828125,0)" xlink:href="#bL"/><use transform="matrix(0.010850694444444444,0,0,0.010850694444444444,49.34895833333333,0)" xlink:href="#bi"/><use transform="matrix(0.010850694444444444,0,0,0.010850694444444444,62.95572916666666,0)" xlink:href="#aU"/><use transform="matrix(0.010850694444444444,0,0,0.010850694444444444,75.91145833333333,0)" xlink:href="#aT"/></g><g id="af"><use transform="matrix(0.010850694444444444,0,0,0.010850694444444444,0,0)" xlink:href="#bS"/><use transform="matrix(0.010850694444444444,0,0,0.010850694444444444,5.967881944444445,0)" xlink:href="#bp"/><use transform="matrix(0.010850694444444444,0,0,0.010850694444444444,19.09722222222222,0)" xlink:href="#bk"/></g><g id="ag"><use transform="matrix(0.010850694444444444,0,0,0.010850694444444444,0,0)" xlink:href="#bg"/><use transform="matrix(0.010850694444444444,0,0,0.010850694444444444,14.2578125,0)" xlink:href="#aU"/><use transform="matrix(0.010850694444444444,0,0,0.010850694444444444,27.213541666666664,0)" xlink:href="#bn"/><use transform="matrix(0.010850694444444444,0,0,0.010850694444444444,40.8203125,0)" xlink:href="#bo"/><use transform="matrix(0.010850694444444444,0,0,0.010850694444444444,53.96050347222222,0)" xlink:href="#aU"/><use transform="matrix(0.010850694444444444,0,0,0.010850694444444444,66.91623263888889,0)" xlink:href="#bp"/><use transform="matrix(0.010850694444444444,0,0,0.010850694444444444,80.04557291666666,0)" xlink:href="#bq"/><use transform="matrix(0.010850694444444444,0,0,0.010850694444444444,92.74088541666666,0)" xlink:href="#aU"/><use transform="matrix(0.010850694444444444,0,0,0.010850694444444444,105.44704861111111,0)" xlink:href="#aZ"/><use transform="matrix(0.010850694444444444,0,0,0.010850694444444444,113.5525173611111,0)" xlink:href="#ba"/><use transform="matrix(0.010850694444444444,0,0,0.010850694444444444,121.6579861111111,0)" xlink:href="#bb"/><use transform="matrix(0.010850694444444444,0,0,0.010850694444444444,128.05989583333331,0)" xlink:href="#bx"/><use transform="matrix(0.010850694444444444,0,0,0.010850694444444444,141.78602430555554,0)" xlink:href="#aX"/><use transform="matrix(0.010850694444444444,0,0,0.010850694444444444,155.33854166666666,0)" xlink:href="#bd"/></g><g id="ai"><use transform="matrix(0.010850694444444444,0,0,0.010850694444444444,0,0)" xlink:href="#bS"/><use transform="matrix(0.010850694444444444,0,0,0.010850694444444444,5.967881944444445,0)" xlink:href="#bp"/><use transform="matrix(0.010850694444444444,0,0,0.010850694444444444,19.09722222222222,0)" xlink:href="#bk"/><use transform="matrix(0.010850694444444444,0,0,0.010850694444444444,26.15017361111111,0)" xlink:href="#aU"/><use transform="matrix(0.010850694444444444,0,0,0.010850694444444444,39.10590277777778,0)" xlink:href="#aT"/><use transform="matrix(0.010850694444444444,0,0,0.010850694444444444,47.819010416666664,0)" xlink:href="#bL"/><use transform="matrix(0.010850694444444444,0,0,0.010850694444444444,67.28515625,0)" xlink:href="#aU"/><use transform="matrix(0.010850694444444444,0,0,0.010850694444444444,80.24088541666667,0)" xlink:href="#bh"/><use transform="matrix(0.010850694444444444,0,0,0.010850694444444444,93.84765625,0)" xlink:href="#bs"/><use transform="matrix(0.010850694444444444,0,0,0.010850694444444444,99.22960069444444,0)" xlink:href="#aP"/><use transform="matrix(0.010850694444444444,0,0,0.010850694444444444,111.70789930555556,0)" xlink:href="#bk"/><use transform="matrix(0.010850694444444444,0,0,0.010850694444444444,118.76085069444444,0)" xlink:href="#aU"/></g><g id="aj"><use transform="matrix(0.010850694444444444,0,0,0.010850694444444444,0,0)" xlink:href="#aO"/><use transform="matrix(0.010850694444444444,0,0,0.010850694444444444,14.192708333333332,0)" xlink:href="#aT"/><use transform="matrix(0.010850694444444444,0,0,0.010850694444444444,22.90581597222222,0)" xlink:href="#bs"/><use transform="matrix(0.010850694444444444,0,0,0.010850694444444444,28.287760416666664,0)" xlink:href="#by"/><use transform="matrix(0.010850694444444444,0,0,0.010850694444444444,40.77690972222222,0)" xlink:href="#aP"/><use transform="matrix(0.010850694444444444,0,0,0.010850694444444444,53.25520833333333,0)" xlink:href="#bk"/><use transform="matrix(0.010850694444444444,0,0,0.010850694444444444,60.30815972222222,0)" xlink:href="#aU"/></g><g id="ak"><use transform="matrix(0.010850694444444444,0,0,0.010850694444444444,0,0)" xlink:href="#bm"/><use transform="matrix(0.010850694444444444,0,0,0.010850694444444444,14.051649305555555,0)" xlink:href="#aU"/><use transform="matrix(0.010850694444444444,0,0,0.010850694444444444,26.573350694444443,0)" xlink:href="#bj"/></g><use transform="matrix(0.010850694444444444,0,0,0.010850694444444444,0,0)" xlink:href="#bz" id="al"/><g id="am"><use transform="matrix(0.010850694444444444,0,0,0.010850694444444444,0,0)" xlink:href="#bS"/><use transform="matrix(0.010850694444444444,0,0,0.010850694444444444,5.967881944444445,0)" xlink:href="#bp"/><use transform="matrix(0.010850694444444444,0,0,0.010850694444444444,19.09722222222222,0)" xlink:href="#bk"/><use transform="matrix(0.010850694444444444,0,0,0.010850694444444444,26.15017361111111,0)" xlink:href="#aU"/><use transform="matrix(0.010850694444444444,0,0,0.010850694444444444,39.10590277777778,0)" xlink:href="#aT"/><use transform="matrix(0.010850694444444444,0,0,0.010850694444444444,47.819010416666664,0)" xlink:href="#bL"/><use transform="matrix(0.010850694444444444,0,0,0.010850694444444444,67.28515625,0)" xlink:href="#aU"/><use transform="matrix(0.010850694444444444,0,0,0.010850694444444444,80.24088541666667,0)" xlink:href="#bh"/><use transform="matrix(0.010850694444444444,0,0,0.010850694444444444,93.84765625,0)" xlink:href="#bs"/><use transform="matrix(0.010850694444444444,0,0,0.010850694444444444,99.22960069444444,0)" xlink:href="#aP"/><use transform="matrix(0.010850694444444444,0,0,0.010850694444444444,111.70789930555556,0)" xlink:href="#bk"/><use transform="matrix(0.010850694444444444,0,0,0.010850694444444444,118.76085069444444,0)" xlink:href="#aU"/></g><path d="M180 0v-1490h908v168H370v486h669v168H370v500h727V0H180" id="bT"/><g id="an"><use transform="matrix(0.010850694444444444,0,0,0.010850694444444444,0,0)" xlink:href="#bT"/><use transform="matrix(0.010850694444444444,0,0,0.010850694444444444,13.35720486111111,0)" xlink:href="#bK"/><use transform="matrix(0.010850694444444444,0,0,0.010850694444444444,18.739149305555557,0)" xlink:href="#bK"/><use transform="matrix(0.010850694444444444,0,0,0.010850694444444444,24.12109375,0)" xlink:href="#bs"/><use transform="matrix(0.010850694444444444,0,0,0.010850694444444444,29.503038194444443,0)" xlink:href="#aR"/><use transform="matrix(0.010850694444444444,0,0,0.010850694444444444,43.10980902777777,0)" xlink:href="#bk"/><use transform="matrix(0.010850694444444444,0,0,0.010850694444444444,50.37977430555556,0)" xlink:href="#bs"/><use transform="matrix(0.010850694444444444,0,0,0.010850694444444444,55.761718749999986,0)" xlink:href="#bq"/></g><path d="M783 20c-382 0-661-292-661-764 0-473 279-766 661-766 302 0 548 182 601 489h-190c-42-204-217-313-411-313-268 0-476 208-476 590 0 381 209 588 476 588 195 0 369-110 411-313h190c-52 303-296 489-601 489" id="bU"/><g id="ao"><use transform="matrix(0.010850694444444444,0,0,0.010850694444444444,0,0)" xlink:href="#bU"/><use transform="matrix(0.010850694444444444,0,0,0.010850694444444444,16.23263888888889,0)" xlink:href="#bo"/><use transform="matrix(0.010850694444444444,0,0,0.010850694444444444,29.37282986111111,0)" xlink:href="#aT"/><use transform="matrix(0.010850694444444444,0,0,0.010850694444444444,38.0859375,0)" xlink:href="#by"/><use transform="matrix(0.010850694444444444,0,0,0.010850694444444444,50.14105902777778,0)" xlink:href="#aU"/></g><g id="ap"><use transform="matrix(0.010850694444444444,0,0,0.010850694444444444,0,0)" xlink:href="#aO"/><use transform="matrix(0.010850694444444444,0,0,0.010850694444444444,14.073350694444445,0)" xlink:href="#bl"/><use transform="matrix(0.010850694444444444,0,0,0.010850694444444444,27.39800347222222,0)" xlink:href="#bs"/><use transform="matrix(0.010850694444444444,0,0,0.010850694444444444,32.779947916666664,0)" xlink:href="#bp"/><use transform="matrix(0.010850694444444444,0,0,0.010850694444444444,45.90928819444444,0)" xlink:href="#bk"/></g><path d="M52 0l541-1490h220L1361 0h-200l-149-416H398L254 0H52zm404-582h497c-103-290-145-390-251-756-108 377-145 460-246 756" id="bV"/><g id="aq"><use transform="matrix(0.010850694444444444,0,0,0.010850694444444444,0,0)" xlink:href="#bV"/><use transform="matrix(0.010850694444444444,0,0,0.010850694444444444,15.33203125,0)" xlink:href="#bh"/><use transform="matrix(0.010850694444444444,0,0,0.010850694444444444,28.938802083333332,0)" xlink:href="#bh"/><use transform="matrix(0.010850694444444444,0,0,0.010850694444444444,42.545572916666664,0)" xlink:href="#bs"/><use transform="matrix(0.010850694444444444,0,0,0.010850694444444444,47.92751736111111,0)" xlink:href="#bk"/><use transform="matrix(0.010850694444444444,0,0,0.010850694444444444,55.197482638888886,0)" xlink:href="#bs"/><use transform="matrix(0.010850694444444444,0,0,0.010850694444444444,60.57942708333333,0)" xlink:href="#bl"/><use transform="matrix(0.010850694444444444,0,0,0.010850694444444444,73.9040798611111,0)" xlink:href="#bp"/></g><path d="M180 0v-1490h270l367 940c28 72 75 218 110 339 35-117 81-264 110-339l362-940h271V0h-187c2-448-5-837 7-1287-157 497-311 829-483 1287H842C666-458 514-784 354-1284c12 438 5 843 7 1284H180" id="bW"/><g id="ar"><use transform="matrix(0.010850694444444444,0,0,0.010850694444444444,0,0)" xlink:href="#bW"/><use transform="matrix(0.010850694444444444,0,0,0.010850694444444444,20.07378472222222,0)" xlink:href="#aP"/><use transform="matrix(0.010850694444444444,0,0,0.010850694444444444,32.55208333333333,0)" xlink:href="#aQ"/><use transform="matrix(0.010850694444444444,0,0,0.010850694444444444,44.28168402777777,0)" xlink:href="#bk"/><use transform="matrix(0.010850694444444444,0,0,0.010850694444444444,51.334635416666664,0)" xlink:href="#aU"/><use transform="matrix(0.010850694444444444,0,0,0.010850694444444444,64.29036458333333,0)" xlink:href="#aT"/></g><g id="as"><use transform="matrix(0.010850694444444444,0,0,0.010850694444444444,0,0)" xlink:href="#bm"/><use transform="matrix(0.010850694444444444,0,0,0.010850694444444444,14.051649305555555,0)" xlink:href="#aU"/><use transform="matrix(0.010850694444444444,0,0,0.010850694444444444,26.573350694444443,0)" xlink:href="#bj"/></g><g id="at"><use transform="matrix(0.010850694444444444,0,0,0.010850694444444444,0,0)" xlink:href="#bx"/><use transform="matrix(0.010850694444444444,0,0,0.010850694444444444,13.726128472222221,0)" xlink:href="#bx"/></g><g id="au"><use transform="matrix(0.010850694444444444,0,0,0.010850694444444444,0,0)" xlink:href="#bi"/><use transform="matrix(0.010850694444444444,0,0,0.010850694444444444,13.172743055555552,0)" xlink:href="#bj"/><use transform="matrix(0.010850694444444444,0,0,0.010850694444444444,25.987413194444443,0)" xlink:href="#bk"/><use transform="matrix(0.010850694444444444,0,0,0.010850694444444444,33.04036458333333,0)" xlink:href="#aU"/><use transform="matrix(0.010850694444444444,0,0,0.010850694444444444,45.996093749999986,0)" xlink:href="#aQ"/></g><g id="av"><use transform="matrix(0.010850694444444444,0,0,0.010850694444444444,0,0)" xlink:href="#aY"/><use transform="matrix(0.010850694444444444,0,0,0.010850694444444444,7.855902777777778,0)" xlink:href="#bq"/><use transform="matrix(0.010850694444444444,0,0,0.010850694444444444,20.55121527777778,0)" xlink:href="#bl"/><use transform="matrix(0.010850694444444444,0,0,0.010850694444444444,33.87586805555556,0)" xlink:href="#bL"/><use transform="matrix(0.010850694444444444,0,0,0.010850694444444444,53.342013888888886,0)" xlink:href="#aR"/><use transform="matrix(0.010850694444444444,0,0,0.010850694444444444,66.94878472222221,0)" xlink:href="#aT"/><use transform="matrix(0.010850694444444444,0,0,0.010850694444444444,74.94574652777777,0)" xlink:href="#aU"/><use transform="matrix(0.010850694444444444,0,0,0.010850694444444444,87.90147569444444,0)" xlink:href="#aQ"/><use transform="matrix(0.010850694444444444,0,0,0.010850694444444444,99.63107638888889,0)" xlink:href="#aQ"/><use transform="matrix(0.010850694444444444,0,0,0.010850694444444444,111.36067708333333,0)" xlink:href="#aU"/><use transform="matrix(0.010850694444444444,0,0,0.010850694444444444,124.31640625,0)" xlink:href="#bh"/></g><g id="aw"><use transform="matrix(0.010850694444444444,0,0,0.010850694444444444,0,0)" xlink:href="#bM"/><use transform="matrix(0.010850694444444444,0,0,0.010850694444444444,7.573784722222222,0)" xlink:href="#bl"/><use transform="matrix(0.010850694444444444,0,0,0.010850694444444444,20.8984375,0)" xlink:href="#aT"/><use transform="matrix(0.010850694444444444,0,0,0.010850694444444444,29.61154513888889,0)" xlink:href="#bL"/><use transform="matrix(0.010850694444444444,0,0,0.010850694444444444,49.07769097222221,0)" xlink:href="#aZ"/></g><g id="ax"><use transform="matrix(0.010850694444444444,0,0,0.010850694444444444,0,0)" xlink:href="#bS"/><use transform="matrix(0.010850694444444444,0,0,0.010850694444444444,5.967881944444445,0)" xlink:href="#bp"/><use transform="matrix(0.010850694444444444,0,0,0.010850694444444444,19.09722222222222,0)" xlink:href="#bk"/></g><g id="ay"><use transform="matrix(0.010850694444444444,0,0,0.010850694444444444,0,0)" xlink:href="#bg"/><use transform="matrix(0.010850694444444444,0,0,0.010850694444444444,14.2578125,0)" xlink:href="#aU"/><use transform="matrix(0.010850694444444444,0,0,0.010850694444444444,27.213541666666664,0)" xlink:href="#bn"/><use transform="matrix(0.010850694444444444,0,0,0.010850694444444444,40.8203125,0)" xlink:href="#bo"/><use transform="matrix(0.010850694444444444,0,0,0.010850694444444444,53.96050347222222,0)" xlink:href="#aU"/><use transform="matrix(0.010850694444444444,0,0,0.010850694444444444,66.91623263888889,0)" xlink:href="#bp"/><use transform="matrix(0.010850694444444444,0,0,0.010850694444444444,80.04557291666666,0)" xlink:href="#bq"/><use transform="matrix(0.010850694444444444,0,0,0.010850694444444444,92.74088541666666,0)" xlink:href="#aU"/></g><use transform="matrix(0.010850694444444444,0,0,0.010850694444444444,0,0)" xlink:href="#bC" id="az"/><use transform="matrix(0.010850694444444444,0,0,0.010850694444444444,0,0)" xlink:href="#aW" id="aA"/><g id="aB"><use transform="matrix(0.008680555555555556,0,0,0.008680555555555556,0,0)" xlink:href="#bD"/><use transform="matrix(0.008680555555555556,0,0,0.008680555555555556,13.550347222222223,0)" xlink:href="#bE"/></g><g id="aC"><use transform="matrix(0.010850694444444444,0,0,0.010850694444444444,0,0)" xlink:href="#bV"/><use transform="matrix(0.010850694444444444,0,0,0.010850694444444444,15.33203125,0)" xlink:href="#bh"/><use transform="matrix(0.010850694444444444,0,0,0.010850694444444444,28.938802083333332,0)" xlink:href="#bh"/><use transform="matrix(0.010850694444444444,0,0,0.010850694444444444,42.545572916666664,0)" xlink:href="#bs"/><use transform="matrix(0.010850694444444444,0,0,0.010850694444444444,47.92751736111111,0)" xlink:href="#bk"/><use transform="matrix(0.010850694444444444,0,0,0.010850694444444444,55.197482638888886,0)" xlink:href="#bs"/><use transform="matrix(0.010850694444444444,0,0,0.010850694444444444,60.57942708333333,0)" xlink:href="#bl"/><use transform="matrix(0.010850694444444444,0,0,0.010850694444444444,73.9040798611111,0)" xlink:href="#bp"/></g><g id="aD"><use transform="matrix(0.010850694444444444,0,0,0.010850694444444444,0,0)" xlink:href="#bL"/><use transform="matrix(0.010850694444444444,0,0,0.010850694444444444,19.466145833333332,0)" xlink:href="#bl"/><use transform="matrix(0.010850694444444444,0,0,0.010850694444444444,32.79079861111111,0)" xlink:href="#bh"/><use transform="matrix(0.010850694444444444,0,0,0.010850694444444444,46.39756944444444,0)" xlink:href="#bo"/><use transform="matrix(0.010850694444444444,0,0,0.010850694444444444,59.537760416666664,0)" xlink:href="#bK"/><use transform="matrix(0.010850694444444444,0,0,0.010850694444444444,64.91970486111111,0)" xlink:href="#bl"/></g><g id="aE"><use transform="matrix(0.010850694444444444,0,0,0.010850694444444444,0,0)" xlink:href="#aQ"/><use transform="matrix(0.010850694444444444,0,0,0.010850694444444444,11.729600694444445,0)" xlink:href="#aU"/><use transform="matrix(0.010850694444444444,0,0,0.010850694444444444,24.68532986111111,0)" xlink:href="#bq"/><use transform="matrix(0.010850694444444444,0,0,0.010850694444444444,37.380642361111114,0)" xlink:href="#aR"/><use transform="matrix(0.010850694444444444,0,0,0.010850694444444444,50.98741319444444,0)" xlink:href="#aX"/><use transform="matrix(0.010850694444444444,0,0,0.010850694444444444,64.53993055555556,0)" xlink:href="#aV"/><use transform="matrix(0.010850694444444444,0,0,0.010850694444444444,78.04904513888889,0)" xlink:href="#bc"/><use transform="matrix(0.010850694444444444,0,0,0.010850694444444444,91.82942708333333,0)" xlink:href="#bA"/><use transform="matrix(0.010850694444444444,0,0,0.010850694444444444,104.02560763888889,0)" xlink:href="#aW"/><use transform="matrix(0.010850694444444444,0,0,0.010850694444444444,113.0642361111111,0)" xlink:href="#bB"/><use transform="matrix(0.010850694444444444,0,0,0.010850694444444444,119.46614583333334,0)" xlink:href="#aR"/></g><g id="aF"><use transform="matrix(0.008680555555555556,0,0,0.008680555555555556,0,0)" xlink:href="#bN"/><use transform="matrix(0.008680555555555556,0,0,0.008680555555555556,11.050347222222223,0)" xlink:href="#bO"/><use transform="matrix(0.008680555555555556,0,0,0.008680555555555556,21.640625,0)" xlink:href="#bP"/></g><g id="aG"><use transform="matrix(0.010850694444444444,0,0,0.010850694444444444,0,0)" xlink:href="#aO"/><use transform="matrix(0.010850694444444444,0,0,0.010850694444444444,14.192708333333332,0)" xlink:href="#aT"/><use transform="matrix(0.010850694444444444,0,0,0.010850694444444444,22.90581597222222,0)" xlink:href="#bs"/><use transform="matrix(0.010850694444444444,0,0,0.010850694444444444,28.287760416666664,0)" xlink:href="#by"/><use transform="matrix(0.010850694444444444,0,0,0.010850694444444444,40.66840277777778,0)" xlink:href="#aP"/><use transform="matrix(0.010850694444444444,0,0,0.010850694444444444,53.146701388888886,0)" xlink:href="#bk"/><use transform="matrix(0.010850694444444444,0,0,0.010850694444444444,60.19965277777778,0)" xlink:href="#aU"/></g><g id="aH"><use transform="matrix(0.010850694444444444,0,0,0.010850694444444444,0,0)" xlink:href="#bx"/><use transform="matrix(0.010850694444444444,0,0,0.010850694444444444,13.726128472222221,0)" xlink:href="#aX"/></g><g id="aI"><use transform="matrix(0.010850694444444444,0,0,0.010850694444444444,0,0)" xlink:href="#bi"/><use transform="matrix(0.010850694444444444,0,0,0.010850694444444444,13.172743055555552,0)" xlink:href="#bj"/><use transform="matrix(0.010850694444444444,0,0,0.010850694444444444,25.987413194444443,0)" xlink:href="#bk"/><use transform="matrix(0.010850694444444444,0,0,0.010850694444444444,33.04036458333333,0)" xlink:href="#aU"/><use transform="matrix(0.010850694444444444,0,0,0.010850694444444444,45.996093749999986,0)" xlink:href="#aQ"/></g><g id="aJ"><use transform="matrix(0.010850694444444444,0,0,0.010850694444444444,0,0)" xlink:href="#bJ"/><use transform="matrix(0.010850694444444444,0,0,0.010850694444444444,16.03732638888889,0)" xlink:href="#aU"/><use transform="matrix(0.010850694444444444,0,0,0.010850694444444444,28.99305555555556,0)" xlink:href="#aT"/><use transform="matrix(0.010850694444444444,0,0,0.010850694444444444,37.70616319444444,0)" xlink:href="#bs"/><use transform="matrix(0.010850694444444444,0,0,0.010850694444444444,43.088107638888886,0)" xlink:href="#by"/><use transform="matrix(0.010850694444444444,0,0,0.010850694444444444,55.143229166666664,0)" xlink:href="#aU"/></g><g id="aK"><use transform="matrix(0.010850694444444444,0,0,0.010850694444444444,0,0)" xlink:href="#bW"/><use transform="matrix(0.010850694444444444,0,0,0.010850694444444444,20.07378472222222,0)" xlink:href="#aP"/><use transform="matrix(0.010850694444444444,0,0,0.010850694444444444,32.55208333333333,0)" xlink:href="#aQ"/><use transform="matrix(0.010850694444444444,0,0,0.010850694444444444,44.28168402777777,0)" xlink:href="#bk"/><use transform="matrix(0.010850694444444444,0,0,0.010850694444444444,51.334635416666664,0)" xlink:href="#aU"/><use transform="matrix(0.010850694444444444,0,0,0.010850694444444444,64.29036458333333,0)" xlink:href="#aT"/></g><g id="aL"><use transform="matrix(0.010850694444444444,0,0,0.010850694444444444,0,0)" xlink:href="#bs"/><use transform="matrix(0.010850694444444444,0,0,0.010850694444444444,5.381944444444445,0)" xlink:href="#bp"/></g><g id="aM"><use transform="matrix(0.010850694444444444,0,0,0.010850694444444444,0,0)" xlink:href="#bq"/><use transform="matrix(0.010850694444444444,0,0,0.010850694444444444,12.6953125,0)" xlink:href="#bl"/><use transform="matrix(0.010850694444444444,0,0,0.010850694444444444,26.01996527777778,0)" xlink:href="#bL"/><use transform="matrix(0.010850694444444444,0,0,0.010850694444444444,45.48611111111111,0)" xlink:href="#aR"/><use transform="matrix(0.010850694444444444,0,0,0.010850694444444444,59.09288194444444,0)" xlink:href="#aT"/><use transform="matrix(0.010850694444444444,0,0,0.010850694444444444,67.08984375,0)" xlink:href="#aU"/><use transform="matrix(0.010850694444444444,0,0,0.010850694444444444,80.04557291666667,0)" xlink:href="#aQ"/><use transform="matrix(0.010850694444444444,0,0,0.010850694444444444,91.77517361111111,0)" xlink:href="#aQ"/><use transform="matrix(0.010850694444444444,0,0,0.010850694444444444,103.50477430555556,0)" xlink:href="#aU"/><use transform="matrix(0.010850694444444444,0,0,0.010850694444444444,116.46050347222224,0)" xlink:href="#bh"/></g><g id="aN"><use transform="matrix(0.010850694444444444,0,0,0.010850694444444444,0,0)" xlink:href="#bM"/><use transform="matrix(0.010850694444444444,0,0,0.010850694444444444,7.573784722222222,0)" xlink:href="#bl"/><use transform="matrix(0.010850694444444444,0,0,0.010850694444444444,20.8984375,0)" xlink:href="#aT"/><use transform="matrix(0.010850694444444444,0,0,0.010850694444444444,29.61154513888889,0)" xlink:href="#bL"/></g></defs></g></svg>